; NON-PLATED HOLES START AT T1
; THROUGH (PLATED) HOLES START AT T100
M48
INCH
T100C0.038972
T101C0.039000
T102C0.042000
T103C0.038445
T104C0.038417
T105C0.038000
T106C0.035000
%
T100
X021322Y017638
X022322Y017638
T101
X023322Y017638
X024322Y017638
T102
X011342Y010638
X014322Y010638
T103
X021922Y020638
X025922Y020638
X012322Y020638
X018922Y020638
X015322Y020638
X019922Y020638
X009322Y020638
X010322Y020638
X017322Y020638
X016322Y020638
X008322Y020638
X024922Y020638
X013322Y020638
X022922Y020638
X014322Y020638
X023922Y020638
X020922Y020638
X011322Y020638
T104
X018922Y001638
X021922Y001638
X016922Y001638
X024922Y001638
X012922Y001638
X015922Y001638
X020922Y001638
X017922Y001638
X013922Y001638
X011922Y001638
X022922Y001638
X025922Y001638
X014922Y001638
X023922Y001638
T105
X018322Y004638
X013322Y017638
X011322Y013638
X012322Y005638
X012322Y017638
X012322Y013638
X019322Y004638
X011322Y017638
X011322Y005638
X017322Y004638
T106
X018322Y010638
X016322Y014638
X018322Y011638
X016322Y018638
X018322Y012638
T00
M30
