G04 MADE WITH FRITZING*
G04 WWW.FRITZING.ORG*
G04 DOUBLE SIDED*
G04 HOLES PLATED*
G04 CONTOUR ON CENTER OF CONTOUR VECTOR*
%ASAXBY*%
%FSLAX23Y23*%
%MOIN*%
%OFA0B0*%
%SFA1.0B1.0*%
%ADD10R,3.333330X2.222220X3.317330X2.206220*%
%ADD11C,0.008000*%
%ADD12R,0.001000X0.001000*%
%LNSILK0*%
G90*
G70*
G54D11*
X4Y2218D02*
X3329Y2218D01*
X3329Y4D01*
X4Y4D01*
X4Y2218D01*
D02*
G54D12*
X0Y2222D02*
X3324Y2222D01*
X0Y2221D02*
X3324Y2221D01*
X0Y2220D02*
X3324Y2220D01*
X0Y2219D02*
X3324Y2219D01*
X0Y2218D02*
X3324Y2218D01*
X3317Y2217D02*
X3324Y2217D01*
X3317Y2216D02*
X3324Y2216D01*
X3317Y2215D02*
X3324Y2215D01*
X3317Y2214D02*
X3324Y2214D01*
X3317Y2213D02*
X3324Y2213D01*
X3317Y2212D02*
X3324Y2212D01*
X3317Y2211D02*
X3324Y2211D01*
X3317Y2210D02*
X3324Y2210D01*
X3317Y2209D02*
X3324Y2209D01*
X3317Y2208D02*
X3324Y2208D01*
X3317Y2207D02*
X3324Y2207D01*
X3317Y2206D02*
X3324Y2206D01*
X3317Y2205D02*
X3324Y2205D01*
X3317Y2204D02*
X3324Y2204D01*
X3317Y2203D02*
X3324Y2203D01*
X3317Y2202D02*
X3324Y2202D01*
X3317Y2201D02*
X3324Y2201D01*
X3317Y2200D02*
X3324Y2200D01*
X3317Y2199D02*
X3324Y2199D01*
X3317Y2198D02*
X3324Y2198D01*
X3317Y2197D02*
X3324Y2197D01*
X3317Y2196D02*
X3324Y2196D01*
X3317Y2195D02*
X3324Y2195D01*
X3317Y2194D02*
X3324Y2194D01*
X3317Y2193D02*
X3324Y2193D01*
X3317Y2192D02*
X3324Y2192D01*
X3317Y2191D02*
X3324Y2191D01*
X3317Y2190D02*
X3324Y2190D01*
X3317Y2189D02*
X3324Y2189D01*
X3317Y2188D02*
X3324Y2188D01*
X3317Y2187D02*
X3324Y2187D01*
X3317Y2186D02*
X3324Y2186D01*
X3317Y2185D02*
X3324Y2185D01*
X3317Y2184D02*
X3324Y2184D01*
X3317Y2183D02*
X3324Y2183D01*
X3317Y2182D02*
X3324Y2182D01*
X3317Y2181D02*
X3324Y2181D01*
X3317Y2180D02*
X3324Y2180D01*
X3317Y2179D02*
X3324Y2179D01*
X3317Y2178D02*
X3324Y2178D01*
X3317Y2177D02*
X3324Y2177D01*
X3317Y2176D02*
X3324Y2176D01*
X3317Y2175D02*
X3324Y2175D01*
X3317Y2174D02*
X3324Y2174D01*
X3317Y2173D02*
X3324Y2173D01*
X3317Y2172D02*
X3324Y2172D01*
X3317Y2171D02*
X3324Y2171D01*
X3317Y2170D02*
X3324Y2170D01*
X3317Y2169D02*
X3324Y2169D01*
X3317Y2168D02*
X3324Y2168D01*
X3317Y2167D02*
X3324Y2167D01*
X3317Y2166D02*
X3324Y2166D01*
X3317Y2165D02*
X3324Y2165D01*
X3317Y2164D02*
X3324Y2164D01*
X3317Y2163D02*
X3324Y2163D01*
X3317Y2162D02*
X3324Y2162D01*
X3317Y2161D02*
X3324Y2161D01*
X3317Y2160D02*
X3324Y2160D01*
X3317Y2159D02*
X3324Y2159D01*
X3317Y2158D02*
X3324Y2158D01*
X3317Y2157D02*
X3324Y2157D01*
X3317Y2156D02*
X3324Y2156D01*
X3317Y2155D02*
X3324Y2155D01*
X3317Y2154D02*
X3324Y2154D01*
X3317Y2153D02*
X3324Y2153D01*
X3317Y2152D02*
X3324Y2152D01*
X3317Y2151D02*
X3324Y2151D01*
X3317Y2150D02*
X3324Y2150D01*
X3317Y2149D02*
X3324Y2149D01*
X3317Y2148D02*
X3324Y2148D01*
X3317Y2147D02*
X3324Y2147D01*
X3317Y2146D02*
X3324Y2146D01*
X3317Y2145D02*
X3324Y2145D01*
X3317Y2144D02*
X3324Y2144D01*
X3317Y2143D02*
X3324Y2143D01*
X3317Y2142D02*
X3324Y2142D01*
X3317Y2141D02*
X3324Y2141D01*
X3317Y2140D02*
X3324Y2140D01*
X3317Y2139D02*
X3324Y2139D01*
X3317Y2138D02*
X3324Y2138D01*
X3317Y2137D02*
X3324Y2137D01*
X3317Y2136D02*
X3324Y2136D01*
X3317Y2135D02*
X3324Y2135D01*
X3317Y2134D02*
X3324Y2134D01*
X3317Y2133D02*
X3324Y2133D01*
X3317Y2132D02*
X3324Y2132D01*
X3317Y2131D02*
X3324Y2131D01*
X3317Y2130D02*
X3324Y2130D01*
X3317Y2129D02*
X3324Y2129D01*
X3317Y2128D02*
X3324Y2128D01*
X3317Y2127D02*
X3324Y2127D01*
X3317Y2126D02*
X3324Y2126D01*
X3317Y2125D02*
X3324Y2125D01*
X3317Y2124D02*
X3324Y2124D01*
X3317Y2123D02*
X3324Y2123D01*
X3317Y2122D02*
X3324Y2122D01*
X3317Y2121D02*
X3324Y2121D01*
X3317Y2120D02*
X3324Y2120D01*
X3317Y2119D02*
X3324Y2119D01*
X3317Y2118D02*
X3324Y2118D01*
X3317Y2117D02*
X3324Y2117D01*
X3317Y2116D02*
X3324Y2116D01*
X3317Y2115D02*
X3324Y2115D01*
X3317Y2114D02*
X3324Y2114D01*
X3317Y2113D02*
X3324Y2113D01*
X3317Y2112D02*
X3324Y2112D01*
X3317Y2111D02*
X3324Y2111D01*
X3317Y2110D02*
X3324Y2110D01*
X3317Y2109D02*
X3324Y2109D01*
X3317Y2108D02*
X3324Y2108D01*
X3317Y2107D02*
X3324Y2107D01*
X3317Y2106D02*
X3324Y2106D01*
X3317Y2105D02*
X3324Y2105D01*
X3317Y2104D02*
X3324Y2104D01*
X3317Y2103D02*
X3324Y2103D01*
X3317Y2102D02*
X3324Y2102D01*
X3317Y2101D02*
X3324Y2101D01*
X3317Y2100D02*
X3324Y2100D01*
X3317Y2099D02*
X3324Y2099D01*
X3317Y2098D02*
X3324Y2098D01*
X3317Y2097D02*
X3324Y2097D01*
X3317Y2096D02*
X3324Y2096D01*
X3317Y2095D02*
X3324Y2095D01*
X3317Y2094D02*
X3324Y2094D01*
X3317Y2093D02*
X3324Y2093D01*
X3317Y2092D02*
X3324Y2092D01*
X3317Y2091D02*
X3324Y2091D01*
X3317Y2090D02*
X3324Y2090D01*
X3317Y2089D02*
X3324Y2089D01*
X3317Y2088D02*
X3324Y2088D01*
X3317Y2087D02*
X3324Y2087D01*
X3317Y2086D02*
X3324Y2086D01*
X3317Y2085D02*
X3324Y2085D01*
X3317Y2084D02*
X3324Y2084D01*
X3317Y2083D02*
X3324Y2083D01*
X3317Y2082D02*
X3324Y2082D01*
X3317Y2081D02*
X3324Y2081D01*
X3317Y2080D02*
X3324Y2080D01*
X3317Y2079D02*
X3324Y2079D01*
X3317Y2078D02*
X3324Y2078D01*
X3317Y2077D02*
X3324Y2077D01*
X3317Y2076D02*
X3324Y2076D01*
X3317Y2075D02*
X3324Y2075D01*
X3317Y2074D02*
X3324Y2074D01*
X3317Y2073D02*
X3324Y2073D01*
X3317Y2072D02*
X3324Y2072D01*
X3317Y2071D02*
X3324Y2071D01*
X3317Y2070D02*
X3324Y2070D01*
X3317Y2069D02*
X3324Y2069D01*
X3317Y2068D02*
X3324Y2068D01*
X3317Y2067D02*
X3324Y2067D01*
X3317Y2066D02*
X3324Y2066D01*
X3317Y2065D02*
X3324Y2065D01*
X3317Y2064D02*
X3324Y2064D01*
X3317Y2063D02*
X3324Y2063D01*
X3317Y2062D02*
X3324Y2062D01*
X3317Y2061D02*
X3324Y2061D01*
X3317Y2060D02*
X3324Y2060D01*
X3317Y2059D02*
X3324Y2059D01*
X3317Y2058D02*
X3324Y2058D01*
X3317Y2057D02*
X3324Y2057D01*
X3317Y2056D02*
X3324Y2056D01*
X3317Y2055D02*
X3324Y2055D01*
X3317Y2054D02*
X3324Y2054D01*
X3317Y2053D02*
X3324Y2053D01*
X3317Y2052D02*
X3324Y2052D01*
X3317Y2051D02*
X3324Y2051D01*
X3317Y2050D02*
X3324Y2050D01*
X3317Y2049D02*
X3324Y2049D01*
X3317Y2048D02*
X3324Y2048D01*
X3317Y2047D02*
X3324Y2047D01*
X3317Y2046D02*
X3324Y2046D01*
X3317Y2045D02*
X3324Y2045D01*
X3317Y2044D02*
X3324Y2044D01*
X3317Y2043D02*
X3324Y2043D01*
X3317Y2042D02*
X3324Y2042D01*
X3317Y2041D02*
X3324Y2041D01*
X3317Y2040D02*
X3324Y2040D01*
X3317Y2039D02*
X3324Y2039D01*
X3317Y2038D02*
X3324Y2038D01*
X3317Y2037D02*
X3324Y2037D01*
X3317Y2036D02*
X3324Y2036D01*
X3317Y2035D02*
X3324Y2035D01*
X3317Y2034D02*
X3324Y2034D01*
X3317Y2033D02*
X3324Y2033D01*
X3317Y2032D02*
X3324Y2032D01*
X3317Y2031D02*
X3324Y2031D01*
X3317Y2030D02*
X3324Y2030D01*
X3317Y2029D02*
X3324Y2029D01*
X3317Y2028D02*
X3324Y2028D01*
X3317Y2027D02*
X3324Y2027D01*
X3317Y2026D02*
X3324Y2026D01*
X3317Y2025D02*
X3324Y2025D01*
X3317Y2024D02*
X3324Y2024D01*
X3317Y2023D02*
X3324Y2023D01*
X3317Y2022D02*
X3324Y2022D01*
X3317Y2021D02*
X3324Y2021D01*
X3317Y2020D02*
X3324Y2020D01*
X3317Y2019D02*
X3324Y2019D01*
X3317Y2018D02*
X3324Y2018D01*
X3317Y2017D02*
X3324Y2017D01*
X3317Y2016D02*
X3324Y2016D01*
X3317Y2015D02*
X3324Y2015D01*
X3317Y2014D02*
X3324Y2014D01*
X3317Y2013D02*
X3324Y2013D01*
X3317Y2012D02*
X3324Y2012D01*
X3317Y2011D02*
X3324Y2011D01*
X3317Y2010D02*
X3324Y2010D01*
X3317Y2009D02*
X3324Y2009D01*
X3317Y2008D02*
X3324Y2008D01*
X3317Y2007D02*
X3324Y2007D01*
X3317Y2006D02*
X3324Y2006D01*
X3317Y2005D02*
X3324Y2005D01*
X3317Y2004D02*
X3324Y2004D01*
X3317Y2003D02*
X3324Y2003D01*
X3317Y2002D02*
X3324Y2002D01*
X3317Y2001D02*
X3324Y2001D01*
X3317Y2000D02*
X3324Y2000D01*
X3317Y1999D02*
X3324Y1999D01*
X3317Y1998D02*
X3324Y1998D01*
X3317Y1997D02*
X3324Y1997D01*
X3317Y1996D02*
X3324Y1996D01*
X3317Y1995D02*
X3324Y1995D01*
X3317Y1994D02*
X3324Y1994D01*
X3317Y1993D02*
X3324Y1993D01*
X3317Y1992D02*
X3324Y1992D01*
X3317Y1991D02*
X3324Y1991D01*
X3317Y1990D02*
X3324Y1990D01*
X3317Y1989D02*
X3324Y1989D01*
X3317Y1988D02*
X3324Y1988D01*
X3317Y1987D02*
X3324Y1987D01*
X3317Y1986D02*
X3324Y1986D01*
X3317Y1985D02*
X3324Y1985D01*
X3317Y1984D02*
X3324Y1984D01*
X3317Y1983D02*
X3324Y1983D01*
X3317Y1982D02*
X3324Y1982D01*
X3317Y1981D02*
X3324Y1981D01*
X3317Y1980D02*
X3324Y1980D01*
X3317Y1979D02*
X3324Y1979D01*
X3317Y1978D02*
X3324Y1978D01*
X3317Y1977D02*
X3324Y1977D01*
X3317Y1976D02*
X3324Y1976D01*
X3317Y1975D02*
X3324Y1975D01*
X3317Y1974D02*
X3324Y1974D01*
X3317Y1973D02*
X3324Y1973D01*
X3317Y1972D02*
X3324Y1972D01*
X3317Y1971D02*
X3324Y1971D01*
X3317Y1970D02*
X3324Y1970D01*
X3317Y1969D02*
X3324Y1969D01*
X3317Y1968D02*
X3324Y1968D01*
X3317Y1967D02*
X3324Y1967D01*
X3317Y1966D02*
X3324Y1966D01*
X3317Y1965D02*
X3324Y1965D01*
X3317Y1964D02*
X3324Y1964D01*
X3317Y1963D02*
X3324Y1963D01*
X3317Y1962D02*
X3324Y1962D01*
X3317Y1961D02*
X3324Y1961D01*
X3317Y1960D02*
X3324Y1960D01*
X3317Y1959D02*
X3324Y1959D01*
X3317Y1958D02*
X3324Y1958D01*
X3317Y1957D02*
X3324Y1957D01*
X3317Y1956D02*
X3324Y1956D01*
X3317Y1955D02*
X3324Y1955D01*
X3317Y1954D02*
X3324Y1954D01*
X3317Y1953D02*
X3324Y1953D01*
X3317Y1952D02*
X3324Y1952D01*
X3317Y1951D02*
X3324Y1951D01*
X3317Y1950D02*
X3324Y1950D01*
X3317Y1949D02*
X3324Y1949D01*
X3317Y1948D02*
X3324Y1948D01*
X3317Y1947D02*
X3324Y1947D01*
X3317Y1946D02*
X3324Y1946D01*
X3317Y1945D02*
X3324Y1945D01*
X3317Y1944D02*
X3324Y1944D01*
X3317Y1943D02*
X3324Y1943D01*
X3317Y1942D02*
X3324Y1942D01*
X3317Y1941D02*
X3324Y1941D01*
X3317Y1940D02*
X3324Y1940D01*
X3317Y1939D02*
X3324Y1939D01*
X3317Y1938D02*
X3324Y1938D01*
X3317Y1937D02*
X3324Y1937D01*
X3317Y1936D02*
X3324Y1936D01*
X3317Y1935D02*
X3324Y1935D01*
X3317Y1934D02*
X3324Y1934D01*
X3317Y1933D02*
X3324Y1933D01*
X3317Y1932D02*
X3324Y1932D01*
X3317Y1931D02*
X3324Y1931D01*
X3317Y1930D02*
X3324Y1930D01*
X3317Y1929D02*
X3324Y1929D01*
X3317Y1928D02*
X3324Y1928D01*
X3317Y1927D02*
X3324Y1927D01*
X3317Y1926D02*
X3324Y1926D01*
X3317Y1925D02*
X3324Y1925D01*
X3317Y1924D02*
X3324Y1924D01*
X3317Y1923D02*
X3324Y1923D01*
X3317Y1922D02*
X3324Y1922D01*
X3317Y1921D02*
X3324Y1921D01*
X3317Y1920D02*
X3324Y1920D01*
X3317Y1919D02*
X3324Y1919D01*
X3317Y1918D02*
X3324Y1918D01*
X3317Y1917D02*
X3324Y1917D01*
X3317Y1916D02*
X3324Y1916D01*
X3317Y1915D02*
X3324Y1915D01*
X3317Y1914D02*
X3324Y1914D01*
X3317Y1913D02*
X3324Y1913D01*
X3317Y1912D02*
X3324Y1912D01*
X3317Y1911D02*
X3324Y1911D01*
X3317Y1910D02*
X3324Y1910D01*
X3317Y1909D02*
X3324Y1909D01*
X3317Y1908D02*
X3324Y1908D01*
X3317Y1907D02*
X3324Y1907D01*
X3317Y1906D02*
X3324Y1906D01*
X3317Y1905D02*
X3324Y1905D01*
X3317Y1904D02*
X3324Y1904D01*
X3317Y1903D02*
X3324Y1903D01*
X3317Y1902D02*
X3324Y1902D01*
X3317Y1901D02*
X3324Y1901D01*
X3317Y1900D02*
X3324Y1900D01*
X3317Y1899D02*
X3324Y1899D01*
X3317Y1898D02*
X3324Y1898D01*
X3317Y1897D02*
X3324Y1897D01*
X3317Y1896D02*
X3324Y1896D01*
X3317Y1895D02*
X3324Y1895D01*
X3317Y1894D02*
X3324Y1894D01*
X3317Y1893D02*
X3324Y1893D01*
X3317Y1892D02*
X3324Y1892D01*
X3317Y1891D02*
X3324Y1891D01*
X3317Y1890D02*
X3324Y1890D01*
X3317Y1889D02*
X3324Y1889D01*
X3317Y1888D02*
X3324Y1888D01*
X3317Y1887D02*
X3324Y1887D01*
X3317Y1886D02*
X3324Y1886D01*
X3317Y1885D02*
X3324Y1885D01*
X3317Y1884D02*
X3324Y1884D01*
X3317Y1883D02*
X3324Y1883D01*
X3317Y1882D02*
X3324Y1882D01*
X3317Y1881D02*
X3324Y1881D01*
X3317Y1880D02*
X3324Y1880D01*
X3317Y1879D02*
X3324Y1879D01*
X3317Y1878D02*
X3324Y1878D01*
X3317Y1877D02*
X3324Y1877D01*
X3317Y1876D02*
X3324Y1876D01*
X3317Y1875D02*
X3324Y1875D01*
X3317Y1874D02*
X3324Y1874D01*
X3317Y1873D02*
X3324Y1873D01*
X3317Y1872D02*
X3324Y1872D01*
X3317Y1871D02*
X3324Y1871D01*
X3317Y1870D02*
X3324Y1870D01*
X3317Y1869D02*
X3324Y1869D01*
X3317Y1868D02*
X3324Y1868D01*
X3317Y1867D02*
X3324Y1867D01*
X3317Y1866D02*
X3324Y1866D01*
X3317Y1865D02*
X3324Y1865D01*
X3317Y1864D02*
X3324Y1864D01*
X3317Y1863D02*
X3324Y1863D01*
X3317Y1862D02*
X3324Y1862D01*
X3317Y1861D02*
X3324Y1861D01*
X3317Y1860D02*
X3324Y1860D01*
X3317Y1859D02*
X3324Y1859D01*
X3317Y1858D02*
X3324Y1858D01*
X3317Y1857D02*
X3324Y1857D01*
X3317Y1856D02*
X3324Y1856D01*
X3317Y1855D02*
X3324Y1855D01*
X3317Y1854D02*
X3324Y1854D01*
X3317Y1853D02*
X3324Y1853D01*
X3317Y1852D02*
X3324Y1852D01*
X3317Y1851D02*
X3324Y1851D01*
X3317Y1850D02*
X3324Y1850D01*
X3317Y1849D02*
X3324Y1849D01*
X3317Y1848D02*
X3324Y1848D01*
X3317Y1847D02*
X3324Y1847D01*
X3317Y1846D02*
X3324Y1846D01*
X3317Y1845D02*
X3324Y1845D01*
X3317Y1844D02*
X3324Y1844D01*
X3317Y1843D02*
X3324Y1843D01*
X3317Y1842D02*
X3324Y1842D01*
X3317Y1841D02*
X3324Y1841D01*
X3317Y1840D02*
X3324Y1840D01*
X3317Y1839D02*
X3324Y1839D01*
X3317Y1838D02*
X3324Y1838D01*
X3317Y1837D02*
X3324Y1837D01*
X3317Y1836D02*
X3324Y1836D01*
X3317Y1835D02*
X3324Y1835D01*
X3317Y1834D02*
X3324Y1834D01*
X3317Y1833D02*
X3324Y1833D01*
X3317Y1832D02*
X3324Y1832D01*
X3317Y1831D02*
X3324Y1831D01*
X3317Y1830D02*
X3324Y1830D01*
X3317Y1829D02*
X3324Y1829D01*
X3317Y1828D02*
X3324Y1828D01*
X3317Y1827D02*
X3324Y1827D01*
X3317Y1826D02*
X3324Y1826D01*
X3317Y1825D02*
X3324Y1825D01*
X3317Y1824D02*
X3324Y1824D01*
X3317Y1823D02*
X3324Y1823D01*
X3317Y1822D02*
X3324Y1822D01*
X3317Y1821D02*
X3324Y1821D01*
X3317Y1820D02*
X3324Y1820D01*
X3317Y1819D02*
X3324Y1819D01*
X3317Y1818D02*
X3324Y1818D01*
X3317Y1817D02*
X3324Y1817D01*
X3317Y1816D02*
X3324Y1816D01*
X3317Y1815D02*
X3324Y1815D01*
X3317Y1814D02*
X3324Y1814D01*
X3317Y1813D02*
X3324Y1813D01*
X3317Y1812D02*
X3324Y1812D01*
X3317Y1811D02*
X3324Y1811D01*
X3317Y1810D02*
X3324Y1810D01*
X3317Y1809D02*
X3324Y1809D01*
X3317Y1808D02*
X3324Y1808D01*
X3317Y1807D02*
X3324Y1807D01*
X3317Y1806D02*
X3324Y1806D01*
X3317Y1805D02*
X3324Y1805D01*
X3317Y1804D02*
X3324Y1804D01*
X3317Y1803D02*
X3324Y1803D01*
X3317Y1802D02*
X3324Y1802D01*
X3317Y1801D02*
X3324Y1801D01*
X3317Y1800D02*
X3324Y1800D01*
X3317Y1799D02*
X3324Y1799D01*
X3317Y1798D02*
X3324Y1798D01*
X3317Y1797D02*
X3324Y1797D01*
X3317Y1796D02*
X3324Y1796D01*
X3317Y1795D02*
X3324Y1795D01*
X3317Y1794D02*
X3324Y1794D01*
X3317Y1793D02*
X3324Y1793D01*
X3317Y1792D02*
X3324Y1792D01*
X3317Y1791D02*
X3324Y1791D01*
X3317Y1790D02*
X3324Y1790D01*
X3317Y1789D02*
X3324Y1789D01*
X3317Y1788D02*
X3324Y1788D01*
X3317Y1787D02*
X3324Y1787D01*
X3317Y1786D02*
X3324Y1786D01*
X3317Y1785D02*
X3324Y1785D01*
X3317Y1784D02*
X3324Y1784D01*
X3317Y1783D02*
X3324Y1783D01*
X3317Y1782D02*
X3324Y1782D01*
X3317Y1781D02*
X3324Y1781D01*
X3317Y1780D02*
X3324Y1780D01*
X3317Y1779D02*
X3324Y1779D01*
X3317Y1778D02*
X3324Y1778D01*
X3317Y1777D02*
X3324Y1777D01*
X3317Y1776D02*
X3324Y1776D01*
X3317Y1775D02*
X3324Y1775D01*
X3317Y1774D02*
X3324Y1774D01*
X3317Y1773D02*
X3324Y1773D01*
X3317Y1772D02*
X3324Y1772D01*
X3317Y1771D02*
X3324Y1771D01*
X3317Y1770D02*
X3324Y1770D01*
X3317Y1769D02*
X3324Y1769D01*
X3317Y1768D02*
X3324Y1768D01*
X3317Y1767D02*
X3324Y1767D01*
X3317Y1766D02*
X3324Y1766D01*
X3317Y1765D02*
X3324Y1765D01*
X3317Y1764D02*
X3324Y1764D01*
X3317Y1763D02*
X3324Y1763D01*
X3317Y1762D02*
X3324Y1762D01*
X3317Y1761D02*
X3324Y1761D01*
X3317Y1760D02*
X3324Y1760D01*
X3317Y1759D02*
X3324Y1759D01*
X3317Y1758D02*
X3324Y1758D01*
X3317Y1757D02*
X3324Y1757D01*
X3317Y1756D02*
X3324Y1756D01*
X3317Y1755D02*
X3324Y1755D01*
X3317Y1754D02*
X3324Y1754D01*
X3317Y1753D02*
X3324Y1753D01*
X3317Y1752D02*
X3324Y1752D01*
X3317Y1751D02*
X3324Y1751D01*
X3317Y1750D02*
X3324Y1750D01*
X3317Y1749D02*
X3324Y1749D01*
X3317Y1748D02*
X3324Y1748D01*
X3317Y1747D02*
X3324Y1747D01*
X3317Y1746D02*
X3324Y1746D01*
X3317Y1745D02*
X3324Y1745D01*
X3317Y1744D02*
X3324Y1744D01*
X3317Y1743D02*
X3324Y1743D01*
X3317Y1742D02*
X3324Y1742D01*
X3317Y1741D02*
X3324Y1741D01*
X3317Y1740D02*
X3324Y1740D01*
X3317Y1739D02*
X3324Y1739D01*
X3317Y1738D02*
X3324Y1738D01*
X3317Y1737D02*
X3324Y1737D01*
X3317Y1736D02*
X3324Y1736D01*
X3317Y1735D02*
X3324Y1735D01*
X3317Y1734D02*
X3324Y1734D01*
X3317Y1733D02*
X3324Y1733D01*
X3317Y1732D02*
X3324Y1732D01*
X3317Y1731D02*
X3324Y1731D01*
X3317Y1730D02*
X3324Y1730D01*
X3317Y1729D02*
X3324Y1729D01*
X3317Y1728D02*
X3324Y1728D01*
X3317Y1727D02*
X3324Y1727D01*
X3317Y1726D02*
X3324Y1726D01*
X3317Y1725D02*
X3324Y1725D01*
X3317Y1724D02*
X3324Y1724D01*
X3317Y1723D02*
X3324Y1723D01*
X3317Y1722D02*
X3324Y1722D01*
X3317Y1721D02*
X3324Y1721D01*
X3317Y1720D02*
X3324Y1720D01*
X3317Y1719D02*
X3324Y1719D01*
X3317Y1718D02*
X3324Y1718D01*
X3317Y1717D02*
X3324Y1717D01*
X3317Y1716D02*
X3324Y1716D01*
X3317Y1715D02*
X3324Y1715D01*
X3317Y1714D02*
X3324Y1714D01*
X3317Y1713D02*
X3324Y1713D01*
X3317Y1712D02*
X3324Y1712D01*
X3317Y1711D02*
X3324Y1711D01*
X3317Y1710D02*
X3324Y1710D01*
X3317Y1709D02*
X3324Y1709D01*
X3317Y1708D02*
X3324Y1708D01*
X3317Y1707D02*
X3324Y1707D01*
X3317Y1706D02*
X3324Y1706D01*
X3317Y1705D02*
X3324Y1705D01*
X3317Y1704D02*
X3324Y1704D01*
X3317Y1703D02*
X3324Y1703D01*
X3317Y1702D02*
X3324Y1702D01*
X3317Y1701D02*
X3324Y1701D01*
X3317Y1700D02*
X3324Y1700D01*
X3317Y1699D02*
X3324Y1699D01*
X3317Y1698D02*
X3324Y1698D01*
X3317Y1697D02*
X3324Y1697D01*
X3317Y1696D02*
X3324Y1696D01*
X3317Y1695D02*
X3324Y1695D01*
X3317Y1694D02*
X3324Y1694D01*
X3317Y1693D02*
X3324Y1693D01*
X3317Y1692D02*
X3324Y1692D01*
X3317Y1691D02*
X3324Y1691D01*
X3317Y1690D02*
X3324Y1690D01*
X3317Y1689D02*
X3324Y1689D01*
X3317Y1688D02*
X3324Y1688D01*
X3317Y1687D02*
X3324Y1687D01*
X3317Y1686D02*
X3324Y1686D01*
X3317Y1685D02*
X3324Y1685D01*
X3317Y1684D02*
X3324Y1684D01*
X3317Y1683D02*
X3324Y1683D01*
X3317Y1682D02*
X3324Y1682D01*
X3317Y1681D02*
X3324Y1681D01*
X3317Y1680D02*
X3324Y1680D01*
X3317Y1679D02*
X3324Y1679D01*
X3317Y1678D02*
X3324Y1678D01*
X3317Y1677D02*
X3324Y1677D01*
X3317Y1676D02*
X3324Y1676D01*
X3317Y1675D02*
X3324Y1675D01*
X3317Y1674D02*
X3324Y1674D01*
X3317Y1673D02*
X3324Y1673D01*
X3317Y1672D02*
X3324Y1672D01*
X3317Y1671D02*
X3324Y1671D01*
X3317Y1670D02*
X3324Y1670D01*
X3317Y1669D02*
X3324Y1669D01*
X3317Y1668D02*
X3324Y1668D01*
X3317Y1667D02*
X3324Y1667D01*
X3317Y1666D02*
X3324Y1666D01*
X3317Y1665D02*
X3324Y1665D01*
X3317Y1664D02*
X3324Y1664D01*
X3317Y1663D02*
X3324Y1663D01*
X3317Y1662D02*
X3324Y1662D01*
X3317Y1661D02*
X3324Y1661D01*
X3317Y1660D02*
X3324Y1660D01*
X3317Y1659D02*
X3324Y1659D01*
X3317Y1658D02*
X3324Y1658D01*
X3317Y1657D02*
X3324Y1657D01*
X3317Y1656D02*
X3324Y1656D01*
X3317Y1655D02*
X3324Y1655D01*
X3317Y1654D02*
X3324Y1654D01*
X3317Y1653D02*
X3324Y1653D01*
X3317Y1652D02*
X3324Y1652D01*
X3317Y1651D02*
X3324Y1651D01*
X3317Y1650D02*
X3324Y1650D01*
X3317Y1649D02*
X3324Y1649D01*
X3317Y1648D02*
X3324Y1648D01*
X3317Y1647D02*
X3324Y1647D01*
X3317Y1646D02*
X3324Y1646D01*
X3317Y1645D02*
X3324Y1645D01*
X3317Y1644D02*
X3324Y1644D01*
X3317Y1643D02*
X3324Y1643D01*
X3317Y1642D02*
X3324Y1642D01*
X3317Y1641D02*
X3324Y1641D01*
X3317Y1640D02*
X3324Y1640D01*
X3317Y1639D02*
X3324Y1639D01*
X3317Y1638D02*
X3324Y1638D01*
X3317Y1637D02*
X3324Y1637D01*
X3317Y1636D02*
X3324Y1636D01*
X3317Y1635D02*
X3324Y1635D01*
X3317Y1634D02*
X3324Y1634D01*
X3317Y1633D02*
X3324Y1633D01*
X3317Y1632D02*
X3324Y1632D01*
X3317Y1631D02*
X3324Y1631D01*
X3317Y1630D02*
X3324Y1630D01*
X3317Y1629D02*
X3324Y1629D01*
X3317Y1628D02*
X3324Y1628D01*
X3317Y1627D02*
X3324Y1627D01*
X3317Y1626D02*
X3324Y1626D01*
X3317Y1625D02*
X3324Y1625D01*
X3317Y1624D02*
X3324Y1624D01*
X3317Y1623D02*
X3324Y1623D01*
X3317Y1622D02*
X3324Y1622D01*
X3317Y1621D02*
X3324Y1621D01*
X3317Y1620D02*
X3324Y1620D01*
X3317Y1619D02*
X3324Y1619D01*
X3317Y1618D02*
X3324Y1618D01*
X3317Y1617D02*
X3324Y1617D01*
X3317Y1616D02*
X3324Y1616D01*
X3317Y1615D02*
X3324Y1615D01*
X3317Y1614D02*
X3324Y1614D01*
X3317Y1613D02*
X3324Y1613D01*
X3317Y1612D02*
X3324Y1612D01*
X3317Y1611D02*
X3324Y1611D01*
X3317Y1610D02*
X3324Y1610D01*
X3317Y1609D02*
X3324Y1609D01*
X3317Y1608D02*
X3324Y1608D01*
X3317Y1607D02*
X3324Y1607D01*
X3317Y1606D02*
X3324Y1606D01*
X3317Y1605D02*
X3324Y1605D01*
X3317Y1604D02*
X3324Y1604D01*
X3317Y1603D02*
X3324Y1603D01*
X3317Y1602D02*
X3324Y1602D01*
X3317Y1601D02*
X3324Y1601D01*
X3317Y1600D02*
X3324Y1600D01*
X3317Y1599D02*
X3324Y1599D01*
X3317Y1598D02*
X3324Y1598D01*
X3317Y1597D02*
X3324Y1597D01*
X3317Y1596D02*
X3324Y1596D01*
X3317Y1595D02*
X3324Y1595D01*
X3317Y1594D02*
X3324Y1594D01*
X3317Y1593D02*
X3324Y1593D01*
X3317Y1592D02*
X3324Y1592D01*
X3317Y1591D02*
X3324Y1591D01*
X3317Y1590D02*
X3324Y1590D01*
X3317Y1589D02*
X3324Y1589D01*
X3317Y1588D02*
X3324Y1588D01*
X3317Y1587D02*
X3324Y1587D01*
X3317Y1586D02*
X3324Y1586D01*
X3317Y1585D02*
X3324Y1585D01*
X3317Y1584D02*
X3324Y1584D01*
X3317Y1583D02*
X3324Y1583D01*
X3317Y1582D02*
X3324Y1582D01*
X3317Y1581D02*
X3324Y1581D01*
X3317Y1580D02*
X3324Y1580D01*
X3317Y1579D02*
X3324Y1579D01*
X3317Y1578D02*
X3324Y1578D01*
X3317Y1577D02*
X3324Y1577D01*
X3317Y1576D02*
X3324Y1576D01*
X3317Y1575D02*
X3324Y1575D01*
X3317Y1574D02*
X3324Y1574D01*
X3317Y1573D02*
X3324Y1573D01*
X3317Y1572D02*
X3324Y1572D01*
X3317Y1571D02*
X3324Y1571D01*
X3317Y1570D02*
X3324Y1570D01*
X3317Y1569D02*
X3324Y1569D01*
X3317Y1568D02*
X3324Y1568D01*
X3317Y1567D02*
X3324Y1567D01*
X3317Y1566D02*
X3324Y1566D01*
X3317Y1565D02*
X3324Y1565D01*
X3317Y1564D02*
X3324Y1564D01*
X3317Y1563D02*
X3324Y1563D01*
X3317Y1562D02*
X3324Y1562D01*
X3317Y1561D02*
X3324Y1561D01*
X3317Y1560D02*
X3324Y1560D01*
X3317Y1559D02*
X3324Y1559D01*
X3317Y1558D02*
X3324Y1558D01*
X3317Y1557D02*
X3324Y1557D01*
X3317Y1556D02*
X3324Y1556D01*
X3317Y1555D02*
X3324Y1555D01*
X3317Y1554D02*
X3324Y1554D01*
X3317Y1553D02*
X3324Y1553D01*
X3317Y1552D02*
X3324Y1552D01*
X3317Y1551D02*
X3324Y1551D01*
X3317Y1550D02*
X3324Y1550D01*
X3317Y1549D02*
X3324Y1549D01*
X3317Y1548D02*
X3324Y1548D01*
X3317Y1547D02*
X3324Y1547D01*
X3317Y1546D02*
X3324Y1546D01*
X3317Y1545D02*
X3324Y1545D01*
X3317Y1544D02*
X3324Y1544D01*
X3317Y1543D02*
X3324Y1543D01*
X3317Y1542D02*
X3324Y1542D01*
X3317Y1541D02*
X3324Y1541D01*
X3317Y1540D02*
X3324Y1540D01*
X3317Y1539D02*
X3324Y1539D01*
X3317Y1538D02*
X3324Y1538D01*
X3317Y1537D02*
X3324Y1537D01*
X3317Y1536D02*
X3324Y1536D01*
X3317Y1535D02*
X3324Y1535D01*
X3317Y1534D02*
X3324Y1534D01*
X3317Y1533D02*
X3324Y1533D01*
X3317Y1532D02*
X3324Y1532D01*
X3317Y1531D02*
X3324Y1531D01*
X3317Y1530D02*
X3324Y1530D01*
X3317Y1529D02*
X3324Y1529D01*
X3317Y1528D02*
X3324Y1528D01*
X3317Y1527D02*
X3324Y1527D01*
X3317Y1526D02*
X3324Y1526D01*
X3317Y1525D02*
X3324Y1525D01*
X3317Y1524D02*
X3324Y1524D01*
X3317Y1523D02*
X3324Y1523D01*
X3317Y1522D02*
X3324Y1522D01*
X3317Y1521D02*
X3324Y1521D01*
X3317Y1520D02*
X3324Y1520D01*
X3317Y1519D02*
X3324Y1519D01*
X3317Y1518D02*
X3324Y1518D01*
X3317Y1517D02*
X3324Y1517D01*
X3317Y1516D02*
X3324Y1516D01*
X3317Y1515D02*
X3324Y1515D01*
X3317Y1514D02*
X3324Y1514D01*
X3317Y1513D02*
X3324Y1513D01*
X3317Y1512D02*
X3324Y1512D01*
X3317Y1511D02*
X3324Y1511D01*
X3317Y1510D02*
X3324Y1510D01*
X3317Y1509D02*
X3324Y1509D01*
X3317Y1508D02*
X3324Y1508D01*
X3317Y1507D02*
X3324Y1507D01*
X3317Y1506D02*
X3324Y1506D01*
X3317Y1505D02*
X3324Y1505D01*
X3317Y1504D02*
X3324Y1504D01*
X3317Y1503D02*
X3324Y1503D01*
X3317Y1502D02*
X3324Y1502D01*
X3317Y1501D02*
X3324Y1501D01*
X3317Y1500D02*
X3324Y1500D01*
X3317Y1499D02*
X3324Y1499D01*
X3317Y1498D02*
X3324Y1498D01*
X3317Y1497D02*
X3324Y1497D01*
X3317Y1496D02*
X3324Y1496D01*
X3317Y1495D02*
X3324Y1495D01*
X3317Y1494D02*
X3324Y1494D01*
X3317Y1493D02*
X3324Y1493D01*
X3317Y1492D02*
X3324Y1492D01*
X3317Y1491D02*
X3324Y1491D01*
X3317Y1490D02*
X3324Y1490D01*
X3317Y1489D02*
X3324Y1489D01*
X3317Y1488D02*
X3324Y1488D01*
X3317Y1487D02*
X3324Y1487D01*
X3317Y1486D02*
X3324Y1486D01*
X3317Y1485D02*
X3324Y1485D01*
X3317Y1484D02*
X3324Y1484D01*
X3317Y1483D02*
X3324Y1483D01*
X3317Y1482D02*
X3324Y1482D01*
X3317Y1481D02*
X3324Y1481D01*
X3317Y1480D02*
X3324Y1480D01*
X3317Y1479D02*
X3324Y1479D01*
X3317Y1478D02*
X3324Y1478D01*
X3317Y1477D02*
X3324Y1477D01*
X3317Y1476D02*
X3324Y1476D01*
X3317Y1475D02*
X3324Y1475D01*
X3317Y1474D02*
X3324Y1474D01*
X3317Y1473D02*
X3324Y1473D01*
X3317Y1472D02*
X3324Y1472D01*
X3317Y1471D02*
X3324Y1471D01*
X3317Y1470D02*
X3324Y1470D01*
X3317Y1469D02*
X3324Y1469D01*
X3317Y1468D02*
X3324Y1468D01*
X3317Y1467D02*
X3324Y1467D01*
X3317Y1466D02*
X3324Y1466D01*
X3317Y1465D02*
X3324Y1465D01*
X3317Y1464D02*
X3324Y1464D01*
X3317Y1463D02*
X3324Y1463D01*
X3317Y1462D02*
X3324Y1462D01*
X3317Y1461D02*
X3324Y1461D01*
X3317Y1460D02*
X3324Y1460D01*
X3317Y1459D02*
X3324Y1459D01*
X3317Y1458D02*
X3324Y1458D01*
X3317Y1457D02*
X3324Y1457D01*
X3317Y1456D02*
X3324Y1456D01*
X3317Y1455D02*
X3324Y1455D01*
X3317Y1454D02*
X3324Y1454D01*
X3317Y1453D02*
X3324Y1453D01*
X3317Y1452D02*
X3324Y1452D01*
X3317Y1451D02*
X3324Y1451D01*
X3317Y1450D02*
X3324Y1450D01*
X3317Y1449D02*
X3324Y1449D01*
X3317Y1448D02*
X3324Y1448D01*
X3317Y1447D02*
X3324Y1447D01*
X3317Y1446D02*
X3324Y1446D01*
X3317Y1445D02*
X3324Y1445D01*
X3317Y1444D02*
X3324Y1444D01*
X3317Y1443D02*
X3324Y1443D01*
X3317Y1442D02*
X3324Y1442D01*
X3317Y1441D02*
X3324Y1441D01*
X3317Y1440D02*
X3324Y1440D01*
X3317Y1439D02*
X3324Y1439D01*
X3317Y1438D02*
X3324Y1438D01*
X3317Y1437D02*
X3324Y1437D01*
X3317Y1436D02*
X3324Y1436D01*
X3317Y1435D02*
X3324Y1435D01*
X3317Y1434D02*
X3324Y1434D01*
X3317Y1433D02*
X3324Y1433D01*
X3317Y1432D02*
X3324Y1432D01*
X3317Y1431D02*
X3324Y1431D01*
X3317Y1430D02*
X3324Y1430D01*
X3317Y1429D02*
X3324Y1429D01*
X3317Y1428D02*
X3324Y1428D01*
X3317Y1427D02*
X3324Y1427D01*
X3317Y1426D02*
X3324Y1426D01*
X3317Y1425D02*
X3324Y1425D01*
X3317Y1424D02*
X3324Y1424D01*
X3317Y1423D02*
X3324Y1423D01*
X3317Y1422D02*
X3324Y1422D01*
X3317Y1421D02*
X3324Y1421D01*
X3317Y1420D02*
X3324Y1420D01*
X3317Y1419D02*
X3324Y1419D01*
X3317Y1418D02*
X3324Y1418D01*
X3317Y1417D02*
X3324Y1417D01*
X3317Y1416D02*
X3324Y1416D01*
X3317Y1415D02*
X3324Y1415D01*
X3317Y1414D02*
X3324Y1414D01*
X3317Y1413D02*
X3324Y1413D01*
X3317Y1412D02*
X3324Y1412D01*
X3317Y1411D02*
X3324Y1411D01*
X3317Y1410D02*
X3324Y1410D01*
X3317Y1409D02*
X3324Y1409D01*
X3317Y1408D02*
X3324Y1408D01*
X3317Y1407D02*
X3324Y1407D01*
X3317Y1406D02*
X3324Y1406D01*
X3317Y1405D02*
X3324Y1405D01*
X3317Y1404D02*
X3324Y1404D01*
X3317Y1403D02*
X3324Y1403D01*
X3317Y1402D02*
X3324Y1402D01*
X3317Y1401D02*
X3324Y1401D01*
X3317Y1400D02*
X3324Y1400D01*
X3317Y1399D02*
X3324Y1399D01*
X3317Y1398D02*
X3324Y1398D01*
X3317Y1397D02*
X3324Y1397D01*
X3317Y1396D02*
X3324Y1396D01*
X3317Y1395D02*
X3324Y1395D01*
X3317Y1394D02*
X3324Y1394D01*
X3317Y1393D02*
X3324Y1393D01*
X3317Y1392D02*
X3324Y1392D01*
X3317Y1391D02*
X3324Y1391D01*
X3317Y1390D02*
X3324Y1390D01*
X3317Y1389D02*
X3324Y1389D01*
X3317Y1388D02*
X3324Y1388D01*
X3317Y1387D02*
X3324Y1387D01*
X3317Y1386D02*
X3324Y1386D01*
X3317Y1385D02*
X3324Y1385D01*
X3317Y1384D02*
X3324Y1384D01*
X3317Y1383D02*
X3324Y1383D01*
X3317Y1382D02*
X3324Y1382D01*
X3317Y1381D02*
X3324Y1381D01*
X3317Y1380D02*
X3324Y1380D01*
X3317Y1379D02*
X3324Y1379D01*
X3317Y1378D02*
X3324Y1378D01*
X3317Y1377D02*
X3324Y1377D01*
X3317Y1376D02*
X3324Y1376D01*
X3317Y1375D02*
X3324Y1375D01*
X3317Y1374D02*
X3324Y1374D01*
X3317Y1373D02*
X3324Y1373D01*
X3317Y1372D02*
X3324Y1372D01*
X3317Y1371D02*
X3324Y1371D01*
X3317Y1370D02*
X3324Y1370D01*
X3317Y1369D02*
X3324Y1369D01*
X3317Y1368D02*
X3324Y1368D01*
X3317Y1367D02*
X3324Y1367D01*
X3317Y1366D02*
X3324Y1366D01*
X3317Y1365D02*
X3324Y1365D01*
X3317Y1364D02*
X3324Y1364D01*
X3317Y1363D02*
X3324Y1363D01*
X3317Y1362D02*
X3324Y1362D01*
X3317Y1361D02*
X3324Y1361D01*
X3317Y1360D02*
X3324Y1360D01*
X3317Y1359D02*
X3324Y1359D01*
X3317Y1358D02*
X3324Y1358D01*
X3317Y1357D02*
X3324Y1357D01*
X3317Y1356D02*
X3324Y1356D01*
X3317Y1355D02*
X3324Y1355D01*
X3317Y1354D02*
X3324Y1354D01*
X3317Y1353D02*
X3324Y1353D01*
X3317Y1352D02*
X3324Y1352D01*
X3317Y1351D02*
X3324Y1351D01*
X3317Y1350D02*
X3324Y1350D01*
X3317Y1349D02*
X3324Y1349D01*
X3317Y1348D02*
X3324Y1348D01*
X3317Y1347D02*
X3324Y1347D01*
X3317Y1346D02*
X3324Y1346D01*
X3317Y1345D02*
X3324Y1345D01*
X3317Y1344D02*
X3324Y1344D01*
X3317Y1343D02*
X3324Y1343D01*
X3317Y1342D02*
X3324Y1342D01*
X3317Y1341D02*
X3324Y1341D01*
X3317Y1340D02*
X3324Y1340D01*
X3317Y1339D02*
X3324Y1339D01*
X3317Y1338D02*
X3324Y1338D01*
X3317Y1337D02*
X3324Y1337D01*
X3317Y1336D02*
X3324Y1336D01*
X3317Y1335D02*
X3324Y1335D01*
X3317Y1334D02*
X3324Y1334D01*
X3317Y1333D02*
X3324Y1333D01*
X3317Y1332D02*
X3324Y1332D01*
X3317Y1331D02*
X3324Y1331D01*
X3317Y1330D02*
X3324Y1330D01*
X3317Y1329D02*
X3324Y1329D01*
X3317Y1328D02*
X3324Y1328D01*
X3317Y1327D02*
X3324Y1327D01*
X3317Y1326D02*
X3324Y1326D01*
X3317Y1325D02*
X3324Y1325D01*
X3317Y1324D02*
X3324Y1324D01*
X3317Y1323D02*
X3324Y1323D01*
X3317Y1322D02*
X3324Y1322D01*
X3317Y1321D02*
X3324Y1321D01*
X3317Y1320D02*
X3324Y1320D01*
X3317Y1319D02*
X3324Y1319D01*
X3317Y1318D02*
X3324Y1318D01*
X3317Y1317D02*
X3324Y1317D01*
X3317Y1316D02*
X3324Y1316D01*
X3317Y1315D02*
X3324Y1315D01*
X3317Y1314D02*
X3324Y1314D01*
X3317Y1313D02*
X3324Y1313D01*
X3317Y1312D02*
X3324Y1312D01*
X3317Y1311D02*
X3324Y1311D01*
X3317Y1310D02*
X3324Y1310D01*
X3317Y1309D02*
X3324Y1309D01*
X3317Y1308D02*
X3324Y1308D01*
X3317Y1307D02*
X3324Y1307D01*
X3317Y1306D02*
X3324Y1306D01*
X3317Y1305D02*
X3324Y1305D01*
X3317Y1304D02*
X3324Y1304D01*
X3317Y1303D02*
X3324Y1303D01*
X3317Y1302D02*
X3324Y1302D01*
X3317Y1301D02*
X3324Y1301D01*
X3317Y1300D02*
X3324Y1300D01*
X3317Y1299D02*
X3324Y1299D01*
X3317Y1298D02*
X3324Y1298D01*
X3317Y1297D02*
X3324Y1297D01*
X3317Y1296D02*
X3324Y1296D01*
X3317Y1295D02*
X3324Y1295D01*
X3317Y1294D02*
X3324Y1294D01*
X3317Y1293D02*
X3324Y1293D01*
X3317Y1292D02*
X3324Y1292D01*
X3317Y1291D02*
X3324Y1291D01*
X3317Y1290D02*
X3324Y1290D01*
X3317Y1289D02*
X3324Y1289D01*
X3317Y1288D02*
X3324Y1288D01*
X3317Y1287D02*
X3324Y1287D01*
X3317Y1286D02*
X3324Y1286D01*
X3317Y1285D02*
X3324Y1285D01*
X3317Y1284D02*
X3324Y1284D01*
X3317Y1283D02*
X3324Y1283D01*
X3317Y1282D02*
X3324Y1282D01*
X3317Y1281D02*
X3324Y1281D01*
X3317Y1280D02*
X3324Y1280D01*
X3317Y1279D02*
X3324Y1279D01*
X3317Y1278D02*
X3324Y1278D01*
X3317Y1277D02*
X3324Y1277D01*
X3317Y1276D02*
X3324Y1276D01*
X3317Y1275D02*
X3324Y1275D01*
X3317Y1274D02*
X3324Y1274D01*
X3317Y1273D02*
X3324Y1273D01*
X3317Y1272D02*
X3324Y1272D01*
X3317Y1271D02*
X3324Y1271D01*
X3317Y1270D02*
X3324Y1270D01*
X3317Y1269D02*
X3324Y1269D01*
X3317Y1268D02*
X3324Y1268D01*
X3317Y1267D02*
X3324Y1267D01*
X3317Y1266D02*
X3324Y1266D01*
X3317Y1265D02*
X3324Y1265D01*
X3317Y1264D02*
X3324Y1264D01*
X3317Y1263D02*
X3324Y1263D01*
X3317Y1262D02*
X3324Y1262D01*
X3317Y1261D02*
X3324Y1261D01*
X3317Y1260D02*
X3324Y1260D01*
X3317Y1259D02*
X3324Y1259D01*
X3317Y1258D02*
X3324Y1258D01*
X3317Y1257D02*
X3324Y1257D01*
X3317Y1256D02*
X3324Y1256D01*
X3317Y1255D02*
X3324Y1255D01*
X3317Y1254D02*
X3324Y1254D01*
X3317Y1253D02*
X3324Y1253D01*
X3317Y1252D02*
X3324Y1252D01*
X3317Y1251D02*
X3324Y1251D01*
X3317Y1250D02*
X3324Y1250D01*
X3317Y1249D02*
X3324Y1249D01*
X3317Y1248D02*
X3324Y1248D01*
X3317Y1247D02*
X3324Y1247D01*
X3317Y1246D02*
X3324Y1246D01*
X3317Y1245D02*
X3324Y1245D01*
X3317Y1244D02*
X3324Y1244D01*
X3317Y1243D02*
X3324Y1243D01*
X3317Y1242D02*
X3324Y1242D01*
X3317Y1241D02*
X3324Y1241D01*
X3317Y1240D02*
X3324Y1240D01*
X3317Y1239D02*
X3324Y1239D01*
X3317Y1238D02*
X3324Y1238D01*
X3317Y1237D02*
X3324Y1237D01*
X3317Y1236D02*
X3324Y1236D01*
X3317Y1235D02*
X3324Y1235D01*
X3317Y1234D02*
X3324Y1234D01*
X3317Y1233D02*
X3324Y1233D01*
X3317Y1232D02*
X3324Y1232D01*
X3317Y1231D02*
X3324Y1231D01*
X3317Y1230D02*
X3324Y1230D01*
X3317Y1229D02*
X3324Y1229D01*
X3317Y1228D02*
X3324Y1228D01*
X3317Y1227D02*
X3324Y1227D01*
X3317Y1226D02*
X3324Y1226D01*
X3317Y1225D02*
X3324Y1225D01*
X3317Y1224D02*
X3324Y1224D01*
X3317Y1223D02*
X3324Y1223D01*
X3317Y1222D02*
X3324Y1222D01*
X3317Y1221D02*
X3324Y1221D01*
X3317Y1220D02*
X3324Y1220D01*
X3317Y1219D02*
X3324Y1219D01*
X3317Y1218D02*
X3324Y1218D01*
X3317Y1217D02*
X3324Y1217D01*
X3317Y1216D02*
X3324Y1216D01*
X3317Y1215D02*
X3324Y1215D01*
X3317Y1214D02*
X3324Y1214D01*
X3317Y1213D02*
X3324Y1213D01*
X3317Y1212D02*
X3324Y1212D01*
X3317Y1211D02*
X3324Y1211D01*
X3317Y1210D02*
X3324Y1210D01*
X3317Y1209D02*
X3324Y1209D01*
X3317Y1208D02*
X3324Y1208D01*
X3317Y1207D02*
X3324Y1207D01*
X3317Y1206D02*
X3324Y1206D01*
X3317Y1205D02*
X3324Y1205D01*
X3317Y1204D02*
X3324Y1204D01*
X3317Y1203D02*
X3324Y1203D01*
X3317Y1202D02*
X3324Y1202D01*
X3317Y1201D02*
X3324Y1201D01*
X3317Y1200D02*
X3324Y1200D01*
X3317Y1199D02*
X3324Y1199D01*
X3317Y1198D02*
X3324Y1198D01*
X3317Y1197D02*
X3324Y1197D01*
X3317Y1196D02*
X3324Y1196D01*
X3317Y1195D02*
X3324Y1195D01*
X3317Y1194D02*
X3324Y1194D01*
X3317Y1193D02*
X3324Y1193D01*
X3317Y1192D02*
X3324Y1192D01*
X3317Y1191D02*
X3324Y1191D01*
X3317Y1190D02*
X3324Y1190D01*
X3317Y1189D02*
X3324Y1189D01*
X3317Y1188D02*
X3324Y1188D01*
X3317Y1187D02*
X3324Y1187D01*
X3317Y1186D02*
X3324Y1186D01*
X3317Y1185D02*
X3324Y1185D01*
X3317Y1184D02*
X3324Y1184D01*
X3317Y1183D02*
X3324Y1183D01*
X3317Y1182D02*
X3324Y1182D01*
X3317Y1181D02*
X3324Y1181D01*
X3317Y1180D02*
X3324Y1180D01*
X3317Y1179D02*
X3324Y1179D01*
X3317Y1178D02*
X3324Y1178D01*
X3317Y1177D02*
X3324Y1177D01*
X3317Y1176D02*
X3324Y1176D01*
X3317Y1175D02*
X3324Y1175D01*
X3317Y1174D02*
X3324Y1174D01*
X3317Y1173D02*
X3324Y1173D01*
X3317Y1172D02*
X3324Y1172D01*
X3317Y1171D02*
X3324Y1171D01*
X3317Y1170D02*
X3324Y1170D01*
X3317Y1169D02*
X3324Y1169D01*
X3317Y1168D02*
X3324Y1168D01*
X3317Y1167D02*
X3324Y1167D01*
X3317Y1166D02*
X3324Y1166D01*
X3317Y1165D02*
X3324Y1165D01*
X3317Y1164D02*
X3324Y1164D01*
X3317Y1163D02*
X3324Y1163D01*
X3317Y1162D02*
X3324Y1162D01*
X3317Y1161D02*
X3324Y1161D01*
X3317Y1160D02*
X3324Y1160D01*
X3317Y1159D02*
X3324Y1159D01*
X3317Y1158D02*
X3324Y1158D01*
X3317Y1157D02*
X3324Y1157D01*
X3317Y1156D02*
X3324Y1156D01*
X3317Y1155D02*
X3324Y1155D01*
X3317Y1154D02*
X3324Y1154D01*
X3317Y1153D02*
X3324Y1153D01*
X3317Y1152D02*
X3324Y1152D01*
X3317Y1151D02*
X3324Y1151D01*
X3317Y1150D02*
X3324Y1150D01*
X3317Y1149D02*
X3324Y1149D01*
X3317Y1148D02*
X3324Y1148D01*
X3317Y1147D02*
X3324Y1147D01*
X3317Y1146D02*
X3324Y1146D01*
X3317Y1145D02*
X3324Y1145D01*
X3317Y1144D02*
X3324Y1144D01*
X3317Y1143D02*
X3324Y1143D01*
X3317Y1142D02*
X3324Y1142D01*
X3317Y1141D02*
X3324Y1141D01*
X3317Y1140D02*
X3324Y1140D01*
X3317Y1139D02*
X3324Y1139D01*
X3317Y1138D02*
X3324Y1138D01*
X3317Y1137D02*
X3324Y1137D01*
X3317Y1136D02*
X3324Y1136D01*
X3317Y1135D02*
X3324Y1135D01*
X3317Y1134D02*
X3324Y1134D01*
X3317Y1133D02*
X3324Y1133D01*
X3317Y1132D02*
X3324Y1132D01*
X3317Y1131D02*
X3324Y1131D01*
X3317Y1130D02*
X3324Y1130D01*
X3317Y1129D02*
X3324Y1129D01*
X3317Y1128D02*
X3324Y1128D01*
X3317Y1127D02*
X3324Y1127D01*
X3317Y1126D02*
X3324Y1126D01*
X3317Y1125D02*
X3324Y1125D01*
X3317Y1124D02*
X3324Y1124D01*
X3317Y1123D02*
X3324Y1123D01*
X3317Y1122D02*
X3324Y1122D01*
X3317Y1121D02*
X3324Y1121D01*
X3317Y1120D02*
X3324Y1120D01*
X3317Y1119D02*
X3324Y1119D01*
X3317Y1118D02*
X3324Y1118D01*
X3317Y1117D02*
X3324Y1117D01*
X3317Y1116D02*
X3324Y1116D01*
X3317Y1115D02*
X3324Y1115D01*
X3317Y1114D02*
X3324Y1114D01*
X3317Y1113D02*
X3324Y1113D01*
X3317Y1112D02*
X3324Y1112D01*
X3317Y1111D02*
X3324Y1111D01*
X3317Y1110D02*
X3324Y1110D01*
X3317Y1109D02*
X3324Y1109D01*
X3317Y1108D02*
X3324Y1108D01*
X3317Y1107D02*
X3324Y1107D01*
X3317Y1106D02*
X3324Y1106D01*
X3317Y1105D02*
X3324Y1105D01*
X3317Y1104D02*
X3324Y1104D01*
X3317Y1103D02*
X3324Y1103D01*
X3317Y1102D02*
X3324Y1102D01*
X3317Y1101D02*
X3324Y1101D01*
X3317Y1100D02*
X3324Y1100D01*
X3317Y1099D02*
X3324Y1099D01*
X3317Y1098D02*
X3324Y1098D01*
X3317Y1097D02*
X3324Y1097D01*
X3317Y1096D02*
X3324Y1096D01*
X3317Y1095D02*
X3324Y1095D01*
X3317Y1094D02*
X3324Y1094D01*
X3317Y1093D02*
X3324Y1093D01*
X3317Y1092D02*
X3324Y1092D01*
X3317Y1091D02*
X3324Y1091D01*
X3317Y1090D02*
X3324Y1090D01*
X3317Y1089D02*
X3324Y1089D01*
X3317Y1088D02*
X3324Y1088D01*
X3317Y1087D02*
X3324Y1087D01*
X3317Y1086D02*
X3324Y1086D01*
X3317Y1085D02*
X3324Y1085D01*
X3317Y1084D02*
X3324Y1084D01*
X3317Y1083D02*
X3324Y1083D01*
X3317Y1082D02*
X3324Y1082D01*
X3317Y1081D02*
X3324Y1081D01*
X3317Y1080D02*
X3324Y1080D01*
X3317Y1079D02*
X3324Y1079D01*
X3317Y1078D02*
X3324Y1078D01*
X3317Y1077D02*
X3324Y1077D01*
X3317Y1076D02*
X3324Y1076D01*
X3317Y1075D02*
X3324Y1075D01*
X3317Y1074D02*
X3324Y1074D01*
X3317Y1073D02*
X3324Y1073D01*
X3317Y1072D02*
X3324Y1072D01*
X3317Y1071D02*
X3324Y1071D01*
X3317Y1070D02*
X3324Y1070D01*
X3317Y1069D02*
X3324Y1069D01*
X3317Y1068D02*
X3324Y1068D01*
X3317Y1067D02*
X3324Y1067D01*
X3317Y1066D02*
X3324Y1066D01*
X3317Y1065D02*
X3324Y1065D01*
X3317Y1064D02*
X3324Y1064D01*
X3317Y1063D02*
X3324Y1063D01*
X3317Y1062D02*
X3324Y1062D01*
X3317Y1061D02*
X3324Y1061D01*
X3317Y1060D02*
X3324Y1060D01*
X3317Y1059D02*
X3324Y1059D01*
X3317Y1058D02*
X3324Y1058D01*
X3317Y1057D02*
X3324Y1057D01*
X3317Y1056D02*
X3324Y1056D01*
X3317Y1055D02*
X3324Y1055D01*
X3317Y1054D02*
X3324Y1054D01*
X3317Y1053D02*
X3324Y1053D01*
X3317Y1052D02*
X3324Y1052D01*
X3317Y1051D02*
X3324Y1051D01*
X3317Y1050D02*
X3324Y1050D01*
X3317Y1049D02*
X3324Y1049D01*
X3317Y1048D02*
X3324Y1048D01*
X3317Y1047D02*
X3324Y1047D01*
X3317Y1046D02*
X3324Y1046D01*
X3317Y1045D02*
X3324Y1045D01*
X3317Y1044D02*
X3324Y1044D01*
X3317Y1043D02*
X3324Y1043D01*
X3317Y1042D02*
X3324Y1042D01*
X3317Y1041D02*
X3324Y1041D01*
X3317Y1040D02*
X3324Y1040D01*
X3317Y1039D02*
X3324Y1039D01*
X3317Y1038D02*
X3324Y1038D01*
X3317Y1037D02*
X3324Y1037D01*
X3317Y1036D02*
X3324Y1036D01*
X3317Y1035D02*
X3324Y1035D01*
X3317Y1034D02*
X3324Y1034D01*
X3317Y1033D02*
X3324Y1033D01*
X3317Y1032D02*
X3324Y1032D01*
X3317Y1031D02*
X3324Y1031D01*
X3317Y1030D02*
X3324Y1030D01*
X3317Y1029D02*
X3324Y1029D01*
X3317Y1028D02*
X3324Y1028D01*
X3317Y1027D02*
X3324Y1027D01*
X3317Y1026D02*
X3324Y1026D01*
X3317Y1025D02*
X3324Y1025D01*
X3317Y1024D02*
X3324Y1024D01*
X3317Y1023D02*
X3324Y1023D01*
X3317Y1022D02*
X3324Y1022D01*
X3317Y1021D02*
X3324Y1021D01*
X3317Y1020D02*
X3324Y1020D01*
X3317Y1019D02*
X3324Y1019D01*
X3317Y1018D02*
X3324Y1018D01*
X3317Y1017D02*
X3324Y1017D01*
X3317Y1016D02*
X3324Y1016D01*
X3317Y1015D02*
X3324Y1015D01*
X3317Y1014D02*
X3324Y1014D01*
X3317Y1013D02*
X3324Y1013D01*
X3317Y1012D02*
X3324Y1012D01*
X3317Y1011D02*
X3324Y1011D01*
X3317Y1010D02*
X3324Y1010D01*
X3317Y1009D02*
X3324Y1009D01*
X3317Y1008D02*
X3324Y1008D01*
X3317Y1007D02*
X3324Y1007D01*
X3317Y1006D02*
X3324Y1006D01*
X3317Y1005D02*
X3324Y1005D01*
X3317Y1004D02*
X3324Y1004D01*
X3317Y1003D02*
X3324Y1003D01*
X3317Y1002D02*
X3324Y1002D01*
X3317Y1001D02*
X3324Y1001D01*
X3317Y1000D02*
X3324Y1000D01*
X3317Y999D02*
X3324Y999D01*
X3317Y998D02*
X3324Y998D01*
X3317Y997D02*
X3324Y997D01*
X3317Y996D02*
X3324Y996D01*
X3317Y995D02*
X3324Y995D01*
X3317Y994D02*
X3324Y994D01*
X3317Y993D02*
X3324Y993D01*
X3317Y992D02*
X3324Y992D01*
X3317Y991D02*
X3324Y991D01*
X3317Y990D02*
X3324Y990D01*
X3317Y989D02*
X3324Y989D01*
X3317Y988D02*
X3324Y988D01*
X3317Y987D02*
X3324Y987D01*
X3317Y986D02*
X3324Y986D01*
X3317Y985D02*
X3324Y985D01*
X3317Y984D02*
X3324Y984D01*
X3317Y983D02*
X3324Y983D01*
X3317Y982D02*
X3324Y982D01*
X3317Y981D02*
X3324Y981D01*
X3317Y980D02*
X3324Y980D01*
X3317Y979D02*
X3324Y979D01*
X3317Y978D02*
X3324Y978D01*
X3317Y977D02*
X3324Y977D01*
X3317Y976D02*
X3324Y976D01*
X3317Y975D02*
X3324Y975D01*
X3317Y974D02*
X3324Y974D01*
X3317Y973D02*
X3324Y973D01*
X3317Y972D02*
X3324Y972D01*
X3317Y971D02*
X3324Y971D01*
X3317Y970D02*
X3324Y970D01*
X3317Y969D02*
X3324Y969D01*
X3317Y968D02*
X3324Y968D01*
X3317Y967D02*
X3324Y967D01*
X3317Y966D02*
X3324Y966D01*
X3317Y965D02*
X3324Y965D01*
X3317Y964D02*
X3324Y964D01*
X3317Y963D02*
X3324Y963D01*
X3317Y962D02*
X3324Y962D01*
X3317Y961D02*
X3324Y961D01*
X3317Y960D02*
X3324Y960D01*
X3317Y959D02*
X3324Y959D01*
X3317Y958D02*
X3324Y958D01*
X3317Y957D02*
X3324Y957D01*
X3317Y956D02*
X3324Y956D01*
X3317Y955D02*
X3324Y955D01*
X3317Y954D02*
X3324Y954D01*
X3317Y953D02*
X3324Y953D01*
X3317Y952D02*
X3324Y952D01*
X3317Y951D02*
X3324Y951D01*
X3317Y950D02*
X3324Y950D01*
X3317Y949D02*
X3324Y949D01*
X3317Y948D02*
X3324Y948D01*
X3317Y947D02*
X3324Y947D01*
X3317Y946D02*
X3324Y946D01*
X3317Y945D02*
X3324Y945D01*
X3317Y944D02*
X3324Y944D01*
X3317Y943D02*
X3324Y943D01*
X3317Y942D02*
X3324Y942D01*
X3317Y941D02*
X3324Y941D01*
X3317Y940D02*
X3324Y940D01*
X3317Y939D02*
X3324Y939D01*
X3317Y938D02*
X3324Y938D01*
X3317Y937D02*
X3324Y937D01*
X3317Y936D02*
X3324Y936D01*
X3317Y935D02*
X3324Y935D01*
X3317Y934D02*
X3324Y934D01*
X3317Y933D02*
X3324Y933D01*
X3317Y932D02*
X3324Y932D01*
X3317Y931D02*
X3324Y931D01*
X3317Y930D02*
X3324Y930D01*
X3317Y929D02*
X3324Y929D01*
X3317Y928D02*
X3324Y928D01*
X3317Y927D02*
X3324Y927D01*
X3317Y926D02*
X3324Y926D01*
X3317Y925D02*
X3324Y925D01*
X3317Y924D02*
X3324Y924D01*
X3317Y923D02*
X3324Y923D01*
X3317Y922D02*
X3324Y922D01*
X3317Y921D02*
X3324Y921D01*
X3317Y920D02*
X3324Y920D01*
X3317Y919D02*
X3324Y919D01*
X3317Y918D02*
X3324Y918D01*
X3317Y917D02*
X3324Y917D01*
X3317Y916D02*
X3324Y916D01*
X3317Y915D02*
X3324Y915D01*
X3317Y914D02*
X3324Y914D01*
X3317Y913D02*
X3324Y913D01*
X3317Y912D02*
X3324Y912D01*
X3317Y911D02*
X3324Y911D01*
X3317Y910D02*
X3324Y910D01*
X3317Y909D02*
X3324Y909D01*
X3317Y908D02*
X3324Y908D01*
X3317Y907D02*
X3324Y907D01*
X3317Y906D02*
X3324Y906D01*
X3317Y905D02*
X3324Y905D01*
X3317Y904D02*
X3324Y904D01*
X3317Y903D02*
X3324Y903D01*
X3317Y902D02*
X3324Y902D01*
X3317Y901D02*
X3324Y901D01*
X3317Y900D02*
X3324Y900D01*
X3317Y899D02*
X3324Y899D01*
X3317Y898D02*
X3324Y898D01*
X3317Y897D02*
X3324Y897D01*
X3317Y896D02*
X3324Y896D01*
X3317Y895D02*
X3324Y895D01*
X3317Y894D02*
X3324Y894D01*
X3317Y893D02*
X3324Y893D01*
X3317Y892D02*
X3324Y892D01*
X3317Y891D02*
X3324Y891D01*
X3317Y890D02*
X3324Y890D01*
X3317Y889D02*
X3324Y889D01*
X3317Y888D02*
X3324Y888D01*
X3317Y887D02*
X3324Y887D01*
X3317Y886D02*
X3324Y886D01*
X3317Y885D02*
X3324Y885D01*
X3317Y884D02*
X3324Y884D01*
X3317Y883D02*
X3324Y883D01*
X3317Y882D02*
X3324Y882D01*
X3317Y881D02*
X3324Y881D01*
X3317Y880D02*
X3324Y880D01*
X3317Y879D02*
X3324Y879D01*
X3317Y878D02*
X3324Y878D01*
X3317Y877D02*
X3324Y877D01*
X3317Y876D02*
X3324Y876D01*
X3317Y875D02*
X3324Y875D01*
X3317Y874D02*
X3324Y874D01*
X3317Y873D02*
X3324Y873D01*
X3317Y872D02*
X3324Y872D01*
X3317Y871D02*
X3324Y871D01*
X3317Y870D02*
X3324Y870D01*
X3317Y869D02*
X3324Y869D01*
X3317Y868D02*
X3324Y868D01*
X3317Y867D02*
X3324Y867D01*
X3317Y866D02*
X3324Y866D01*
X3317Y865D02*
X3324Y865D01*
X3317Y864D02*
X3324Y864D01*
X3317Y863D02*
X3324Y863D01*
X3317Y862D02*
X3324Y862D01*
X3317Y861D02*
X3324Y861D01*
X3317Y860D02*
X3324Y860D01*
X3317Y859D02*
X3324Y859D01*
X3317Y858D02*
X3324Y858D01*
X3317Y857D02*
X3324Y857D01*
X3317Y856D02*
X3324Y856D01*
X3317Y855D02*
X3324Y855D01*
X3317Y854D02*
X3324Y854D01*
X3317Y853D02*
X3324Y853D01*
X3317Y852D02*
X3324Y852D01*
X3317Y851D02*
X3324Y851D01*
X3317Y850D02*
X3324Y850D01*
X3317Y849D02*
X3324Y849D01*
X3317Y848D02*
X3324Y848D01*
X3317Y847D02*
X3324Y847D01*
X3317Y846D02*
X3324Y846D01*
X3317Y845D02*
X3324Y845D01*
X3317Y844D02*
X3324Y844D01*
X3317Y843D02*
X3324Y843D01*
X3317Y842D02*
X3324Y842D01*
X3317Y841D02*
X3324Y841D01*
X3317Y840D02*
X3324Y840D01*
X3317Y839D02*
X3324Y839D01*
X3317Y838D02*
X3324Y838D01*
X3317Y837D02*
X3324Y837D01*
X3317Y836D02*
X3324Y836D01*
X3317Y835D02*
X3324Y835D01*
X3317Y834D02*
X3324Y834D01*
X3317Y833D02*
X3324Y833D01*
X3317Y832D02*
X3324Y832D01*
X3317Y831D02*
X3324Y831D01*
X3317Y830D02*
X3324Y830D01*
X3317Y829D02*
X3324Y829D01*
X3317Y828D02*
X3324Y828D01*
X3317Y827D02*
X3324Y827D01*
X3317Y826D02*
X3324Y826D01*
X3317Y825D02*
X3324Y825D01*
X3317Y824D02*
X3324Y824D01*
X3317Y823D02*
X3324Y823D01*
X3317Y822D02*
X3324Y822D01*
X3317Y821D02*
X3324Y821D01*
X3317Y820D02*
X3324Y820D01*
X3317Y819D02*
X3324Y819D01*
X3317Y818D02*
X3324Y818D01*
X3317Y817D02*
X3324Y817D01*
X3317Y816D02*
X3324Y816D01*
X3317Y815D02*
X3324Y815D01*
X3317Y814D02*
X3324Y814D01*
X3317Y813D02*
X3324Y813D01*
X3317Y812D02*
X3324Y812D01*
X3317Y811D02*
X3324Y811D01*
X3317Y810D02*
X3324Y810D01*
X3317Y809D02*
X3324Y809D01*
X3317Y808D02*
X3324Y808D01*
X3317Y807D02*
X3324Y807D01*
X3317Y806D02*
X3324Y806D01*
X3317Y805D02*
X3324Y805D01*
X3317Y804D02*
X3324Y804D01*
X3317Y803D02*
X3324Y803D01*
X3317Y802D02*
X3324Y802D01*
X3317Y801D02*
X3324Y801D01*
X3317Y800D02*
X3324Y800D01*
X3317Y799D02*
X3324Y799D01*
X3317Y798D02*
X3324Y798D01*
X3317Y797D02*
X3324Y797D01*
X3317Y796D02*
X3324Y796D01*
X3317Y795D02*
X3324Y795D01*
X3317Y794D02*
X3324Y794D01*
X3317Y793D02*
X3324Y793D01*
X3317Y792D02*
X3324Y792D01*
X3317Y791D02*
X3324Y791D01*
X3317Y790D02*
X3324Y790D01*
X3317Y789D02*
X3324Y789D01*
X3317Y788D02*
X3324Y788D01*
X3317Y787D02*
X3324Y787D01*
X3317Y786D02*
X3324Y786D01*
X3317Y785D02*
X3324Y785D01*
X3317Y784D02*
X3324Y784D01*
X3317Y783D02*
X3324Y783D01*
X3317Y782D02*
X3324Y782D01*
X3317Y781D02*
X3324Y781D01*
X3317Y780D02*
X3324Y780D01*
X3317Y779D02*
X3324Y779D01*
X3317Y778D02*
X3324Y778D01*
X3317Y777D02*
X3324Y777D01*
X3317Y776D02*
X3324Y776D01*
X3317Y775D02*
X3324Y775D01*
X3317Y774D02*
X3324Y774D01*
X3317Y773D02*
X3324Y773D01*
X3317Y772D02*
X3324Y772D01*
X3317Y771D02*
X3324Y771D01*
X3317Y770D02*
X3324Y770D01*
X3317Y769D02*
X3324Y769D01*
X3317Y768D02*
X3324Y768D01*
X3317Y767D02*
X3324Y767D01*
X3317Y766D02*
X3324Y766D01*
X3317Y765D02*
X3324Y765D01*
X3317Y764D02*
X3324Y764D01*
X3317Y763D02*
X3324Y763D01*
X3317Y762D02*
X3324Y762D01*
X3317Y761D02*
X3324Y761D01*
X3317Y760D02*
X3324Y760D01*
X3317Y759D02*
X3324Y759D01*
X3317Y758D02*
X3324Y758D01*
X3317Y757D02*
X3324Y757D01*
X3317Y756D02*
X3324Y756D01*
X3317Y755D02*
X3324Y755D01*
X3317Y754D02*
X3324Y754D01*
X3317Y753D02*
X3324Y753D01*
X3317Y752D02*
X3324Y752D01*
X3317Y751D02*
X3324Y751D01*
X3317Y750D02*
X3324Y750D01*
X3317Y749D02*
X3324Y749D01*
X3317Y748D02*
X3324Y748D01*
X3317Y747D02*
X3324Y747D01*
X3317Y746D02*
X3324Y746D01*
X3317Y745D02*
X3324Y745D01*
X3317Y744D02*
X3324Y744D01*
X3317Y743D02*
X3324Y743D01*
X3317Y742D02*
X3324Y742D01*
X3317Y741D02*
X3324Y741D01*
X3317Y740D02*
X3324Y740D01*
X3317Y739D02*
X3324Y739D01*
X3317Y738D02*
X3324Y738D01*
X3317Y737D02*
X3324Y737D01*
X3317Y736D02*
X3324Y736D01*
X3317Y735D02*
X3324Y735D01*
X3317Y734D02*
X3324Y734D01*
X3317Y733D02*
X3324Y733D01*
X3317Y732D02*
X3324Y732D01*
X3317Y731D02*
X3324Y731D01*
X3317Y730D02*
X3324Y730D01*
X3317Y729D02*
X3324Y729D01*
X3317Y728D02*
X3324Y728D01*
X3317Y727D02*
X3324Y727D01*
X3317Y726D02*
X3324Y726D01*
X3317Y725D02*
X3324Y725D01*
X3317Y724D02*
X3324Y724D01*
X3317Y723D02*
X3324Y723D01*
X3317Y722D02*
X3324Y722D01*
X3317Y721D02*
X3324Y721D01*
X3317Y720D02*
X3324Y720D01*
X3317Y719D02*
X3324Y719D01*
X3317Y718D02*
X3324Y718D01*
X3317Y717D02*
X3324Y717D01*
X3317Y716D02*
X3324Y716D01*
X3317Y715D02*
X3324Y715D01*
X3317Y714D02*
X3324Y714D01*
X3317Y713D02*
X3324Y713D01*
X3317Y712D02*
X3324Y712D01*
X3317Y711D02*
X3324Y711D01*
X3317Y710D02*
X3324Y710D01*
X3317Y709D02*
X3324Y709D01*
X3317Y708D02*
X3324Y708D01*
X3317Y707D02*
X3324Y707D01*
X3317Y706D02*
X3324Y706D01*
X3317Y705D02*
X3324Y705D01*
X3317Y704D02*
X3324Y704D01*
X3317Y703D02*
X3324Y703D01*
X3317Y702D02*
X3324Y702D01*
X3317Y701D02*
X3324Y701D01*
X3317Y700D02*
X3324Y700D01*
X3317Y699D02*
X3324Y699D01*
X3317Y698D02*
X3324Y698D01*
X3317Y697D02*
X3324Y697D01*
X3317Y696D02*
X3324Y696D01*
X3317Y695D02*
X3324Y695D01*
X3317Y694D02*
X3324Y694D01*
X3317Y693D02*
X3324Y693D01*
X3317Y692D02*
X3324Y692D01*
X3317Y691D02*
X3324Y691D01*
X3317Y690D02*
X3324Y690D01*
X3317Y689D02*
X3324Y689D01*
X3317Y688D02*
X3324Y688D01*
X3317Y687D02*
X3324Y687D01*
X3317Y686D02*
X3324Y686D01*
X3317Y685D02*
X3324Y685D01*
X3317Y684D02*
X3324Y684D01*
X3317Y683D02*
X3324Y683D01*
X3317Y682D02*
X3324Y682D01*
X3317Y681D02*
X3324Y681D01*
X3317Y680D02*
X3324Y680D01*
X3317Y679D02*
X3324Y679D01*
X3317Y678D02*
X3324Y678D01*
X3317Y677D02*
X3324Y677D01*
X3317Y676D02*
X3324Y676D01*
X3317Y675D02*
X3324Y675D01*
X3317Y674D02*
X3324Y674D01*
X3317Y673D02*
X3324Y673D01*
X3317Y672D02*
X3324Y672D01*
X3317Y671D02*
X3324Y671D01*
X3317Y670D02*
X3324Y670D01*
X3317Y669D02*
X3324Y669D01*
X3317Y668D02*
X3324Y668D01*
X3317Y667D02*
X3324Y667D01*
X3317Y666D02*
X3324Y666D01*
X3317Y665D02*
X3324Y665D01*
X3317Y664D02*
X3324Y664D01*
X3317Y663D02*
X3324Y663D01*
X3317Y662D02*
X3324Y662D01*
X3317Y661D02*
X3324Y661D01*
X3317Y660D02*
X3324Y660D01*
X3317Y659D02*
X3324Y659D01*
X3317Y658D02*
X3324Y658D01*
X3317Y657D02*
X3324Y657D01*
X3317Y656D02*
X3324Y656D01*
X3317Y655D02*
X3324Y655D01*
X3317Y654D02*
X3324Y654D01*
X3317Y653D02*
X3324Y653D01*
X3317Y652D02*
X3324Y652D01*
X3317Y651D02*
X3324Y651D01*
X3317Y650D02*
X3324Y650D01*
X3317Y649D02*
X3324Y649D01*
X3317Y648D02*
X3324Y648D01*
X3317Y647D02*
X3324Y647D01*
X3317Y646D02*
X3324Y646D01*
X3317Y645D02*
X3324Y645D01*
X3317Y644D02*
X3324Y644D01*
X3317Y643D02*
X3324Y643D01*
X3317Y642D02*
X3324Y642D01*
X3317Y641D02*
X3324Y641D01*
X3317Y640D02*
X3324Y640D01*
X3317Y639D02*
X3324Y639D01*
X3317Y638D02*
X3324Y638D01*
X3317Y637D02*
X3324Y637D01*
X3317Y636D02*
X3324Y636D01*
X3317Y635D02*
X3324Y635D01*
X3317Y634D02*
X3324Y634D01*
X3317Y633D02*
X3324Y633D01*
X3317Y632D02*
X3324Y632D01*
X3317Y631D02*
X3324Y631D01*
X3317Y630D02*
X3324Y630D01*
X3317Y629D02*
X3324Y629D01*
X3317Y628D02*
X3324Y628D01*
X3317Y627D02*
X3324Y627D01*
X3317Y626D02*
X3324Y626D01*
X3317Y625D02*
X3324Y625D01*
X3317Y624D02*
X3324Y624D01*
X3317Y623D02*
X3324Y623D01*
X3317Y622D02*
X3324Y622D01*
X3317Y621D02*
X3324Y621D01*
X3317Y620D02*
X3324Y620D01*
X3317Y619D02*
X3324Y619D01*
X3317Y618D02*
X3324Y618D01*
X3317Y617D02*
X3324Y617D01*
X3317Y616D02*
X3324Y616D01*
X3317Y615D02*
X3324Y615D01*
X3317Y614D02*
X3324Y614D01*
X3317Y613D02*
X3324Y613D01*
X3317Y612D02*
X3324Y612D01*
X3317Y611D02*
X3324Y611D01*
X3317Y610D02*
X3324Y610D01*
X3317Y609D02*
X3324Y609D01*
X3317Y608D02*
X3324Y608D01*
X3317Y607D02*
X3324Y607D01*
X3317Y606D02*
X3324Y606D01*
X3317Y605D02*
X3324Y605D01*
X3317Y604D02*
X3324Y604D01*
X3317Y603D02*
X3324Y603D01*
X3317Y602D02*
X3324Y602D01*
X3317Y601D02*
X3324Y601D01*
X3317Y600D02*
X3324Y600D01*
X3317Y599D02*
X3324Y599D01*
X3317Y598D02*
X3324Y598D01*
X3317Y597D02*
X3324Y597D01*
X3317Y596D02*
X3324Y596D01*
X3317Y595D02*
X3324Y595D01*
X3317Y594D02*
X3324Y594D01*
X3317Y593D02*
X3324Y593D01*
X3317Y592D02*
X3324Y592D01*
X3317Y591D02*
X3324Y591D01*
X3317Y590D02*
X3324Y590D01*
X3317Y589D02*
X3324Y589D01*
X3317Y588D02*
X3324Y588D01*
X3317Y587D02*
X3324Y587D01*
X3317Y586D02*
X3324Y586D01*
X3317Y585D02*
X3324Y585D01*
X3317Y584D02*
X3324Y584D01*
X3317Y583D02*
X3324Y583D01*
X3317Y582D02*
X3324Y582D01*
X3317Y581D02*
X3324Y581D01*
X3317Y580D02*
X3324Y580D01*
X3317Y579D02*
X3324Y579D01*
X3317Y578D02*
X3324Y578D01*
X3317Y577D02*
X3324Y577D01*
X3317Y576D02*
X3324Y576D01*
X3317Y575D02*
X3324Y575D01*
X3317Y574D02*
X3324Y574D01*
X3317Y573D02*
X3324Y573D01*
X3317Y572D02*
X3324Y572D01*
X3317Y571D02*
X3324Y571D01*
X3317Y570D02*
X3324Y570D01*
X3317Y569D02*
X3324Y569D01*
X3317Y568D02*
X3324Y568D01*
X3317Y567D02*
X3324Y567D01*
X3317Y566D02*
X3324Y566D01*
X3317Y565D02*
X3324Y565D01*
X3317Y564D02*
X3324Y564D01*
X3317Y563D02*
X3324Y563D01*
X3317Y562D02*
X3324Y562D01*
X3317Y561D02*
X3324Y561D01*
X3317Y560D02*
X3324Y560D01*
X3317Y559D02*
X3324Y559D01*
X3317Y558D02*
X3324Y558D01*
X3317Y557D02*
X3324Y557D01*
X3317Y556D02*
X3324Y556D01*
X3317Y555D02*
X3324Y555D01*
X3317Y554D02*
X3324Y554D01*
X3317Y553D02*
X3324Y553D01*
X3317Y552D02*
X3324Y552D01*
X3317Y551D02*
X3324Y551D01*
X3317Y550D02*
X3324Y550D01*
X3317Y549D02*
X3324Y549D01*
X3317Y548D02*
X3324Y548D01*
X3317Y547D02*
X3324Y547D01*
X3317Y546D02*
X3324Y546D01*
X3317Y545D02*
X3324Y545D01*
X3317Y544D02*
X3324Y544D01*
X3317Y543D02*
X3324Y543D01*
X3317Y542D02*
X3324Y542D01*
X3317Y541D02*
X3324Y541D01*
X3317Y540D02*
X3324Y540D01*
X3317Y539D02*
X3324Y539D01*
X3317Y538D02*
X3324Y538D01*
X3317Y537D02*
X3324Y537D01*
X3317Y536D02*
X3324Y536D01*
X3317Y535D02*
X3324Y535D01*
X3317Y534D02*
X3324Y534D01*
X3317Y533D02*
X3324Y533D01*
X3317Y532D02*
X3324Y532D01*
X3317Y531D02*
X3324Y531D01*
X3317Y530D02*
X3324Y530D01*
X3317Y529D02*
X3324Y529D01*
X3317Y528D02*
X3324Y528D01*
X3317Y527D02*
X3324Y527D01*
X3317Y526D02*
X3324Y526D01*
X3317Y525D02*
X3324Y525D01*
X3317Y524D02*
X3324Y524D01*
X3317Y523D02*
X3324Y523D01*
X3317Y522D02*
X3324Y522D01*
X3317Y521D02*
X3324Y521D01*
X3317Y520D02*
X3324Y520D01*
X3317Y519D02*
X3324Y519D01*
X3317Y518D02*
X3324Y518D01*
X3317Y517D02*
X3324Y517D01*
X3317Y516D02*
X3324Y516D01*
X3317Y515D02*
X3324Y515D01*
X3317Y514D02*
X3324Y514D01*
X3317Y513D02*
X3324Y513D01*
X3317Y512D02*
X3324Y512D01*
X3317Y511D02*
X3324Y511D01*
X3317Y510D02*
X3324Y510D01*
X3317Y509D02*
X3324Y509D01*
X3317Y508D02*
X3324Y508D01*
X3317Y507D02*
X3324Y507D01*
X3317Y506D02*
X3324Y506D01*
X3317Y505D02*
X3324Y505D01*
X3317Y504D02*
X3324Y504D01*
X3317Y503D02*
X3324Y503D01*
X3317Y502D02*
X3324Y502D01*
X3317Y501D02*
X3324Y501D01*
X3317Y500D02*
X3324Y500D01*
X3317Y499D02*
X3324Y499D01*
X3317Y498D02*
X3324Y498D01*
X3317Y497D02*
X3324Y497D01*
X3317Y496D02*
X3324Y496D01*
X3317Y495D02*
X3324Y495D01*
X3317Y494D02*
X3324Y494D01*
X3317Y493D02*
X3324Y493D01*
X3317Y492D02*
X3324Y492D01*
X3317Y491D02*
X3324Y491D01*
X3317Y490D02*
X3324Y490D01*
X3317Y489D02*
X3324Y489D01*
X3317Y488D02*
X3324Y488D01*
X3317Y487D02*
X3324Y487D01*
X3317Y486D02*
X3324Y486D01*
X3317Y485D02*
X3324Y485D01*
X3317Y484D02*
X3324Y484D01*
X3317Y483D02*
X3324Y483D01*
X3317Y482D02*
X3324Y482D01*
X3317Y481D02*
X3324Y481D01*
X3317Y480D02*
X3324Y480D01*
X3317Y479D02*
X3324Y479D01*
X3317Y478D02*
X3324Y478D01*
X3317Y477D02*
X3324Y477D01*
X3317Y476D02*
X3324Y476D01*
X3317Y475D02*
X3324Y475D01*
X3317Y474D02*
X3324Y474D01*
X3317Y473D02*
X3324Y473D01*
X3317Y472D02*
X3324Y472D01*
X3317Y471D02*
X3324Y471D01*
X3317Y470D02*
X3324Y470D01*
X3317Y469D02*
X3324Y469D01*
X3317Y468D02*
X3324Y468D01*
X3317Y467D02*
X3324Y467D01*
X3317Y466D02*
X3324Y466D01*
X3317Y465D02*
X3324Y465D01*
X3317Y464D02*
X3324Y464D01*
X3317Y463D02*
X3324Y463D01*
X3317Y462D02*
X3324Y462D01*
X3317Y461D02*
X3324Y461D01*
X3317Y460D02*
X3324Y460D01*
X3317Y459D02*
X3324Y459D01*
X3317Y458D02*
X3324Y458D01*
X3317Y457D02*
X3324Y457D01*
X3317Y456D02*
X3324Y456D01*
X3317Y455D02*
X3324Y455D01*
X3317Y454D02*
X3324Y454D01*
X3317Y453D02*
X3324Y453D01*
X3317Y452D02*
X3324Y452D01*
X3317Y451D02*
X3324Y451D01*
X3317Y450D02*
X3324Y450D01*
X3317Y449D02*
X3324Y449D01*
X3317Y448D02*
X3324Y448D01*
X3317Y447D02*
X3324Y447D01*
X3317Y446D02*
X3324Y446D01*
X3317Y445D02*
X3324Y445D01*
X3317Y444D02*
X3324Y444D01*
X3317Y443D02*
X3324Y443D01*
X3317Y442D02*
X3324Y442D01*
X3317Y441D02*
X3324Y441D01*
X3317Y440D02*
X3324Y440D01*
X3317Y439D02*
X3324Y439D01*
X3317Y438D02*
X3324Y438D01*
X3317Y437D02*
X3324Y437D01*
X3317Y436D02*
X3324Y436D01*
X3317Y435D02*
X3324Y435D01*
X3317Y434D02*
X3324Y434D01*
X3317Y433D02*
X3324Y433D01*
X3317Y432D02*
X3324Y432D01*
X3317Y431D02*
X3324Y431D01*
X3317Y430D02*
X3324Y430D01*
X3317Y429D02*
X3324Y429D01*
X3317Y428D02*
X3324Y428D01*
X3317Y427D02*
X3324Y427D01*
X3317Y426D02*
X3324Y426D01*
X3317Y425D02*
X3324Y425D01*
X3317Y424D02*
X3324Y424D01*
X3317Y423D02*
X3324Y423D01*
X3317Y422D02*
X3324Y422D01*
X3317Y421D02*
X3324Y421D01*
X3317Y420D02*
X3324Y420D01*
X3317Y419D02*
X3324Y419D01*
X3317Y418D02*
X3324Y418D01*
X3317Y417D02*
X3324Y417D01*
X3317Y416D02*
X3324Y416D01*
X3317Y415D02*
X3324Y415D01*
X3317Y414D02*
X3324Y414D01*
X3317Y413D02*
X3324Y413D01*
X3317Y412D02*
X3324Y412D01*
X3317Y411D02*
X3324Y411D01*
X3317Y410D02*
X3324Y410D01*
X3317Y409D02*
X3324Y409D01*
X3317Y408D02*
X3324Y408D01*
X3317Y407D02*
X3324Y407D01*
X3317Y406D02*
X3324Y406D01*
X3317Y405D02*
X3324Y405D01*
X3317Y404D02*
X3324Y404D01*
X3317Y403D02*
X3324Y403D01*
X3317Y402D02*
X3324Y402D01*
X3317Y401D02*
X3324Y401D01*
X3317Y400D02*
X3324Y400D01*
X3317Y399D02*
X3324Y399D01*
X3317Y398D02*
X3324Y398D01*
X3317Y397D02*
X3324Y397D01*
X3317Y396D02*
X3324Y396D01*
X3317Y395D02*
X3324Y395D01*
X3317Y394D02*
X3324Y394D01*
X3317Y393D02*
X3324Y393D01*
X3317Y392D02*
X3324Y392D01*
X3317Y391D02*
X3324Y391D01*
X3317Y390D02*
X3324Y390D01*
X3317Y389D02*
X3324Y389D01*
X3317Y388D02*
X3324Y388D01*
X3317Y387D02*
X3324Y387D01*
X3317Y386D02*
X3324Y386D01*
X3317Y385D02*
X3324Y385D01*
X3317Y384D02*
X3324Y384D01*
X3317Y383D02*
X3324Y383D01*
X3317Y382D02*
X3324Y382D01*
X3317Y381D02*
X3324Y381D01*
X3317Y380D02*
X3324Y380D01*
X3317Y379D02*
X3324Y379D01*
X3317Y378D02*
X3324Y378D01*
X3317Y377D02*
X3324Y377D01*
X3317Y376D02*
X3324Y376D01*
X3317Y375D02*
X3324Y375D01*
X3317Y374D02*
X3324Y374D01*
X3317Y373D02*
X3324Y373D01*
X3317Y372D02*
X3324Y372D01*
X3317Y371D02*
X3324Y371D01*
X3317Y370D02*
X3324Y370D01*
X3317Y369D02*
X3324Y369D01*
X3317Y368D02*
X3324Y368D01*
X3317Y367D02*
X3324Y367D01*
X3317Y366D02*
X3324Y366D01*
X3317Y365D02*
X3324Y365D01*
X3317Y364D02*
X3324Y364D01*
X3317Y363D02*
X3324Y363D01*
X3317Y362D02*
X3324Y362D01*
X3317Y361D02*
X3324Y361D01*
X3317Y360D02*
X3324Y360D01*
X3317Y359D02*
X3324Y359D01*
X3317Y358D02*
X3324Y358D01*
X3317Y357D02*
X3324Y357D01*
X3317Y356D02*
X3324Y356D01*
X3317Y355D02*
X3324Y355D01*
X3317Y354D02*
X3324Y354D01*
X3317Y353D02*
X3324Y353D01*
X3317Y352D02*
X3324Y352D01*
X3317Y351D02*
X3324Y351D01*
X3317Y350D02*
X3324Y350D01*
X3317Y349D02*
X3324Y349D01*
X3317Y348D02*
X3324Y348D01*
X3317Y347D02*
X3324Y347D01*
X3317Y346D02*
X3324Y346D01*
X3317Y345D02*
X3324Y345D01*
X3317Y344D02*
X3324Y344D01*
X3317Y343D02*
X3324Y343D01*
X3317Y342D02*
X3324Y342D01*
X3317Y341D02*
X3324Y341D01*
X3317Y340D02*
X3324Y340D01*
X3317Y339D02*
X3324Y339D01*
X3317Y338D02*
X3324Y338D01*
X3317Y337D02*
X3324Y337D01*
X3317Y336D02*
X3324Y336D01*
X3317Y335D02*
X3324Y335D01*
X3317Y334D02*
X3324Y334D01*
X3317Y333D02*
X3324Y333D01*
X3317Y332D02*
X3324Y332D01*
X3317Y331D02*
X3324Y331D01*
X3317Y330D02*
X3324Y330D01*
X3317Y329D02*
X3324Y329D01*
X3317Y328D02*
X3324Y328D01*
X3317Y327D02*
X3324Y327D01*
X3317Y326D02*
X3324Y326D01*
X3317Y325D02*
X3324Y325D01*
X3317Y324D02*
X3324Y324D01*
X3317Y323D02*
X3324Y323D01*
X3317Y322D02*
X3324Y322D01*
X3317Y321D02*
X3324Y321D01*
X3317Y320D02*
X3324Y320D01*
X3317Y319D02*
X3324Y319D01*
X3317Y318D02*
X3324Y318D01*
X3317Y317D02*
X3324Y317D01*
X3317Y316D02*
X3324Y316D01*
X3317Y315D02*
X3324Y315D01*
X3317Y314D02*
X3324Y314D01*
X3317Y313D02*
X3324Y313D01*
X3317Y312D02*
X3324Y312D01*
X3317Y311D02*
X3324Y311D01*
X3317Y310D02*
X3324Y310D01*
X3317Y309D02*
X3324Y309D01*
X3317Y308D02*
X3324Y308D01*
X3317Y307D02*
X3324Y307D01*
X3317Y306D02*
X3324Y306D01*
X3317Y305D02*
X3324Y305D01*
X3317Y304D02*
X3324Y304D01*
X3317Y303D02*
X3324Y303D01*
X3317Y302D02*
X3324Y302D01*
X3317Y301D02*
X3324Y301D01*
X3317Y300D02*
X3324Y300D01*
X3317Y299D02*
X3324Y299D01*
X3317Y298D02*
X3324Y298D01*
X3317Y297D02*
X3324Y297D01*
X3317Y296D02*
X3324Y296D01*
X3317Y295D02*
X3324Y295D01*
X3317Y294D02*
X3324Y294D01*
X3317Y293D02*
X3324Y293D01*
X3317Y292D02*
X3324Y292D01*
X3317Y291D02*
X3324Y291D01*
X3317Y290D02*
X3324Y290D01*
X3317Y289D02*
X3324Y289D01*
X3317Y288D02*
X3324Y288D01*
X3317Y287D02*
X3324Y287D01*
X3317Y286D02*
X3324Y286D01*
X3317Y285D02*
X3324Y285D01*
X3317Y284D02*
X3324Y284D01*
X3317Y283D02*
X3324Y283D01*
X3317Y282D02*
X3324Y282D01*
X3317Y281D02*
X3324Y281D01*
X3317Y280D02*
X3324Y280D01*
X3317Y279D02*
X3324Y279D01*
X3317Y278D02*
X3324Y278D01*
X3317Y277D02*
X3324Y277D01*
X3317Y276D02*
X3324Y276D01*
X3317Y275D02*
X3324Y275D01*
X3317Y274D02*
X3324Y274D01*
X3317Y273D02*
X3324Y273D01*
X3317Y272D02*
X3324Y272D01*
X3317Y271D02*
X3324Y271D01*
X3317Y270D02*
X3324Y270D01*
X3317Y269D02*
X3324Y269D01*
X3317Y268D02*
X3324Y268D01*
X3317Y267D02*
X3324Y267D01*
X3317Y266D02*
X3324Y266D01*
X3317Y265D02*
X3324Y265D01*
X3317Y264D02*
X3324Y264D01*
X3317Y263D02*
X3324Y263D01*
X3317Y262D02*
X3324Y262D01*
X3317Y261D02*
X3324Y261D01*
X3317Y260D02*
X3324Y260D01*
X3317Y259D02*
X3324Y259D01*
X3317Y258D02*
X3324Y258D01*
X3317Y257D02*
X3324Y257D01*
X3317Y256D02*
X3324Y256D01*
X3317Y255D02*
X3324Y255D01*
X3317Y254D02*
X3324Y254D01*
X3317Y253D02*
X3324Y253D01*
X3317Y252D02*
X3324Y252D01*
X3317Y251D02*
X3324Y251D01*
X3317Y250D02*
X3324Y250D01*
X3317Y249D02*
X3324Y249D01*
X3317Y248D02*
X3324Y248D01*
X3317Y247D02*
X3324Y247D01*
X3317Y246D02*
X3324Y246D01*
X3317Y245D02*
X3324Y245D01*
X3317Y244D02*
X3324Y244D01*
X3317Y243D02*
X3324Y243D01*
X3317Y242D02*
X3324Y242D01*
X3317Y241D02*
X3324Y241D01*
X3317Y240D02*
X3324Y240D01*
X3317Y239D02*
X3324Y239D01*
X3317Y238D02*
X3324Y238D01*
X3317Y237D02*
X3324Y237D01*
X3317Y236D02*
X3324Y236D01*
X3317Y235D02*
X3324Y235D01*
X3317Y234D02*
X3324Y234D01*
X3317Y233D02*
X3324Y233D01*
X3317Y232D02*
X3324Y232D01*
X3317Y231D02*
X3324Y231D01*
X3317Y230D02*
X3324Y230D01*
X3317Y229D02*
X3324Y229D01*
X3317Y228D02*
X3324Y228D01*
X3317Y227D02*
X3324Y227D01*
X3317Y226D02*
X3324Y226D01*
X3317Y225D02*
X3324Y225D01*
X3317Y224D02*
X3324Y224D01*
X3317Y223D02*
X3324Y223D01*
X3317Y222D02*
X3324Y222D01*
X3317Y221D02*
X3324Y221D01*
X3317Y220D02*
X3324Y220D01*
X3317Y219D02*
X3324Y219D01*
X3317Y218D02*
X3324Y218D01*
X3317Y217D02*
X3324Y217D01*
X3317Y216D02*
X3324Y216D01*
X3317Y215D02*
X3324Y215D01*
X3317Y214D02*
X3324Y214D01*
X3317Y213D02*
X3324Y213D01*
X3317Y212D02*
X3324Y212D01*
X3317Y211D02*
X3324Y211D01*
X3317Y210D02*
X3324Y210D01*
X3317Y209D02*
X3324Y209D01*
X3317Y208D02*
X3324Y208D01*
X3317Y207D02*
X3324Y207D01*
X3317Y206D02*
X3324Y206D01*
X3317Y205D02*
X3324Y205D01*
X3317Y204D02*
X3324Y204D01*
X3317Y203D02*
X3324Y203D01*
X3317Y202D02*
X3324Y202D01*
X3317Y201D02*
X3324Y201D01*
X3317Y200D02*
X3324Y200D01*
X3317Y199D02*
X3324Y199D01*
X3317Y198D02*
X3324Y198D01*
X3317Y197D02*
X3324Y197D01*
X3317Y196D02*
X3324Y196D01*
X3317Y195D02*
X3324Y195D01*
X3317Y194D02*
X3324Y194D01*
X3317Y193D02*
X3324Y193D01*
X3317Y192D02*
X3324Y192D01*
X3317Y191D02*
X3324Y191D01*
X3317Y190D02*
X3324Y190D01*
X3317Y189D02*
X3324Y189D01*
X3317Y188D02*
X3324Y188D01*
X3317Y187D02*
X3324Y187D01*
X3317Y186D02*
X3324Y186D01*
X3317Y185D02*
X3324Y185D01*
X3317Y184D02*
X3324Y184D01*
X3317Y183D02*
X3324Y183D01*
X3317Y182D02*
X3324Y182D01*
X3317Y181D02*
X3324Y181D01*
X3317Y180D02*
X3324Y180D01*
X3317Y179D02*
X3324Y179D01*
X3317Y178D02*
X3324Y178D01*
X3317Y177D02*
X3324Y177D01*
X3317Y176D02*
X3324Y176D01*
X3317Y175D02*
X3324Y175D01*
X3317Y174D02*
X3324Y174D01*
X3317Y173D02*
X3324Y173D01*
X3317Y172D02*
X3324Y172D01*
X3317Y171D02*
X3324Y171D01*
X3317Y170D02*
X3324Y170D01*
X3317Y169D02*
X3324Y169D01*
X3317Y168D02*
X3324Y168D01*
X3317Y167D02*
X3324Y167D01*
X3317Y166D02*
X3324Y166D01*
X3317Y165D02*
X3324Y165D01*
X3317Y164D02*
X3324Y164D01*
X3317Y163D02*
X3324Y163D01*
X3317Y162D02*
X3324Y162D01*
X3317Y161D02*
X3324Y161D01*
X3317Y160D02*
X3324Y160D01*
X3317Y159D02*
X3324Y159D01*
X3317Y158D02*
X3324Y158D01*
X3317Y157D02*
X3324Y157D01*
X3317Y156D02*
X3324Y156D01*
X3317Y155D02*
X3324Y155D01*
X3317Y154D02*
X3324Y154D01*
X3317Y153D02*
X3324Y153D01*
X3317Y152D02*
X3324Y152D01*
X3317Y151D02*
X3324Y151D01*
X3317Y150D02*
X3324Y150D01*
X3317Y149D02*
X3324Y149D01*
X3317Y148D02*
X3324Y148D01*
X3317Y147D02*
X3324Y147D01*
X3317Y146D02*
X3324Y146D01*
X3317Y145D02*
X3324Y145D01*
X3317Y144D02*
X3324Y144D01*
X3317Y143D02*
X3324Y143D01*
X3317Y142D02*
X3324Y142D01*
X3317Y141D02*
X3324Y141D01*
X3317Y140D02*
X3324Y140D01*
X3317Y139D02*
X3324Y139D01*
X3317Y138D02*
X3324Y138D01*
X3317Y137D02*
X3324Y137D01*
X3317Y136D02*
X3324Y136D01*
X3317Y135D02*
X3324Y135D01*
X3317Y134D02*
X3324Y134D01*
X3317Y133D02*
X3324Y133D01*
X3317Y132D02*
X3324Y132D01*
X3317Y131D02*
X3324Y131D01*
X3317Y130D02*
X3324Y130D01*
X3317Y129D02*
X3324Y129D01*
X3317Y128D02*
X3324Y128D01*
X3317Y127D02*
X3324Y127D01*
X3317Y126D02*
X3324Y126D01*
X3317Y125D02*
X3324Y125D01*
X3317Y124D02*
X3324Y124D01*
X3317Y123D02*
X3324Y123D01*
X3317Y122D02*
X3324Y122D01*
X3317Y121D02*
X3324Y121D01*
X3317Y120D02*
X3324Y120D01*
X3317Y119D02*
X3324Y119D01*
X3317Y118D02*
X3324Y118D01*
X3317Y117D02*
X3324Y117D01*
X3317Y116D02*
X3324Y116D01*
X3317Y115D02*
X3324Y115D01*
X3317Y114D02*
X3324Y114D01*
X3317Y113D02*
X3324Y113D01*
X3317Y112D02*
X3324Y112D01*
X3317Y111D02*
X3324Y111D01*
X3317Y110D02*
X3324Y110D01*
X3317Y109D02*
X3324Y109D01*
X3317Y108D02*
X3324Y108D01*
X3317Y107D02*
X3324Y107D01*
X3317Y106D02*
X3324Y106D01*
X3317Y105D02*
X3324Y105D01*
X3317Y104D02*
X3324Y104D01*
X3317Y103D02*
X3324Y103D01*
X3317Y102D02*
X3324Y102D01*
X3317Y101D02*
X3324Y101D01*
X3317Y100D02*
X3324Y100D01*
X3317Y99D02*
X3324Y99D01*
X3317Y98D02*
X3324Y98D01*
X3317Y97D02*
X3324Y97D01*
X3317Y96D02*
X3324Y96D01*
X3317Y95D02*
X3324Y95D01*
X3317Y94D02*
X3324Y94D01*
X3317Y93D02*
X3324Y93D01*
X3317Y92D02*
X3324Y92D01*
X3317Y91D02*
X3324Y91D01*
X3317Y90D02*
X3324Y90D01*
X3317Y89D02*
X3324Y89D01*
X3317Y88D02*
X3324Y88D01*
X3317Y87D02*
X3324Y87D01*
X3317Y86D02*
X3324Y86D01*
X3317Y85D02*
X3324Y85D01*
X3317Y84D02*
X3324Y84D01*
X3317Y83D02*
X3324Y83D01*
X3317Y82D02*
X3324Y82D01*
X3317Y81D02*
X3324Y81D01*
X3317Y80D02*
X3324Y80D01*
X3317Y79D02*
X3324Y79D01*
X3317Y78D02*
X3324Y78D01*
X3317Y77D02*
X3324Y77D01*
X3317Y76D02*
X3324Y76D01*
X3317Y75D02*
X3324Y75D01*
X3317Y74D02*
X3324Y74D01*
X3317Y73D02*
X3324Y73D01*
X3317Y72D02*
X3324Y72D01*
X3317Y71D02*
X3324Y71D01*
X3317Y70D02*
X3324Y70D01*
X3317Y69D02*
X3324Y69D01*
X3317Y68D02*
X3324Y68D01*
X3317Y67D02*
X3324Y67D01*
X3317Y66D02*
X3324Y66D01*
X3317Y65D02*
X3324Y65D01*
X3317Y64D02*
X3324Y64D01*
X3317Y63D02*
X3324Y63D01*
X3317Y62D02*
X3324Y62D01*
X3317Y61D02*
X3324Y61D01*
X3317Y60D02*
X3324Y60D01*
X3317Y59D02*
X3324Y59D01*
X3317Y58D02*
X3324Y58D01*
X3317Y57D02*
X3324Y57D01*
X3317Y56D02*
X3324Y56D01*
X3317Y55D02*
X3324Y55D01*
X3317Y54D02*
X3324Y54D01*
X3317Y53D02*
X3324Y53D01*
X3317Y52D02*
X3324Y52D01*
X3317Y51D02*
X3324Y51D01*
X3317Y50D02*
X3324Y50D01*
X3317Y49D02*
X3324Y49D01*
X3317Y48D02*
X3324Y48D01*
X3317Y47D02*
X3324Y47D01*
X3317Y46D02*
X3324Y46D01*
X3317Y45D02*
X3324Y45D01*
X3317Y44D02*
X3324Y44D01*
X3317Y43D02*
X3324Y43D01*
X3317Y42D02*
X3324Y42D01*
X3317Y41D02*
X3324Y41D01*
X3317Y40D02*
X3324Y40D01*
X3317Y39D02*
X3324Y39D01*
X3317Y38D02*
X3324Y38D01*
X3317Y37D02*
X3324Y37D01*
X3317Y36D02*
X3324Y36D01*
X3317Y35D02*
X3324Y35D01*
X3317Y34D02*
X3324Y34D01*
X3317Y33D02*
X3324Y33D01*
X3317Y32D02*
X3324Y32D01*
X3317Y31D02*
X3324Y31D01*
X3317Y30D02*
X3324Y30D01*
X3317Y29D02*
X3324Y29D01*
X3317Y28D02*
X3324Y28D01*
X3317Y27D02*
X3324Y27D01*
X3317Y26D02*
X3324Y26D01*
X3317Y25D02*
X3324Y25D01*
X3317Y24D02*
X3324Y24D01*
X3317Y23D02*
X3324Y23D01*
X3317Y22D02*
X3324Y22D01*
X3317Y21D02*
X3324Y21D01*
X3317Y20D02*
X3324Y20D01*
X3317Y19D02*
X3324Y19D01*
X3317Y18D02*
X3324Y18D01*
X3317Y17D02*
X3324Y17D01*
X3317Y16D02*
X3324Y16D01*
X3317Y15D02*
X3324Y15D01*
X3317Y14D02*
X3324Y14D01*
X3317Y13D02*
X3324Y13D01*
X3317Y12D02*
X3324Y12D01*
X0Y11D02*
X3324Y11D01*
X0Y10D02*
X3324Y10D01*
X0Y9D02*
X3324Y9D01*
X0Y8D02*
X3324Y8D01*
X0Y7D02*
X3324Y7D01*
X0Y6D02*
X3324Y6D01*
X0Y5D02*
X3324Y5D01*
X0Y4D02*
X3324Y4D01*
D02*
G04 End of Silk0*
M02*